<svg class="animated" id="freepik_stories-button-style" xmlns="http://www.w3.org/2000/svg" viewBox="0 0 500 500" version="1.1" xmlns:xlink="http://www.w3.org/1999/xlink" xmlns:svgjs="http://svgjs.com/svgjs" style="user-select: auto;"><style>svg#freepik_stories-button-style:not(.animated) .animable {opacity: 0;}svg#freepik_stories-button-style.animated #freepik--background-complete--inject-49 {animation: 1s 1 forwards cubic-bezier(.36,-0.01,.5,1.38) fadeIn;animation-delay: 0s;}svg#freepik_stories-button-style.animated #freepik--Floor--inject-49 {animation: 1s 1 forwards cubic-bezier(.36,-0.01,.5,1.38) fadeIn;animation-delay: 0s;}svg#freepik_stories-button-style.animated #freepik--Device--inject-49 {animation: 1s 1 forwards cubic-bezier(.36,-0.01,.5,1.38) zoomIn;animation-delay: 0s;}svg#freepik_stories-button-style.animated #freepik--Plant--inject-49 {animation: 1s 1 forwards cubic-bezier(.36,-0.01,.5,1.38) slideUp;animation-delay: 0s;}svg#freepik_stories-button-style.animated #freepik--Character--inject-49 {animation: 1s 1 forwards cubic-bezier(.36,-0.01,.5,1.38) slideLeft;animation-delay: 0s;}svg#freepik_stories-button-style.animated #freepik--Window--inject-49 {animation: 1s 1 forwards cubic-bezier(.36,-0.01,.5,1.38) zoomOut;animation-delay: 0s;}svg#freepik_stories-button-style.animated #freepik--speech-bubble--inject-49 {animation: 1s 1 forwards cubic-bezier(.36,-0.01,.5,1.38) slideUp;animation-delay: 0s;}            @keyframes fadeIn {                0% {                    opacity: 0;                }                100% {                    opacity: 1;                }            }                    @keyframes zoomIn {                0% {                    opacity: 0;                    transform: scale(0.5);                }                100% {                    opacity: 1;                    transform: scale(1);                }            }                    @keyframes slideUp {                0% {                    opacity: 0;                    transform: translateY(30px);                }                100% {                    opacity: 1;                    transform: inherit;                }            }                    @keyframes slideLeft {                0% {                    opacity: 0;                    transform: translateX(-30px);                }                100% {                    opacity: 1;                    transform: translateX(0);                }            }                    @keyframes zoomOut {                0% {                    opacity: 0;                    transform: scale(1.5);                }                100% {                    opacity: 1;                    transform: scale(1);                }            }        </style><g id="freepik--background-complete--inject-49" class="animable" style="transform-origin: 243.11px 239.78px; user-select: auto;"><rect x="240.8" y="372.07" width="111.81" height="75.14" style="fill: rgb(245, 245, 245); transform-origin: 296.705px 409.64px; user-select: auto;" id="ela19bxxollhg" class="animable"></rect><rect x="240.8" y="372.07" width="111.81" height="12.32" style="fill: rgb(224, 224, 224); transform-origin: 296.705px 378.23px; user-select: auto;" id="elf3nyerzf4wi" class="animable"></rect><path d="M249.07,378.5a1.54,1.54,0,1,1-1.54-1.54A1.54,1.54,0,0,1,249.07,378.5Z" style="fill: rgb(245, 245, 245); transform-origin: 247.53px 378.5px; user-select: auto;" id="elozjleumejyp" class="animable"></path><path d="M255,378.5a1.54,1.54,0,1,1-1.53-1.54A1.54,1.54,0,0,1,255,378.5Z" style="fill: rgb(245, 245, 245); transform-origin: 253.46px 378.5px; user-select: auto;" id="elxkeazmmoju" class="animable"></path><path d="M260.85,378.5a1.54,1.54,0,1,1-1.53-1.54A1.53,1.53,0,0,1,260.85,378.5Z" style="fill: rgb(245, 245, 245); transform-origin: 259.31px 378.5px; user-select: auto;" id="el2pbyj6iauli" class="animable"></path><rect x="345.84" y="32.35" width="95.72" height="64.33" style="fill: rgb(245, 245, 245); transform-origin: 393.7px 64.515px; user-select: auto;" id="elbck7jha4sr4" class="animable"></rect><rect x="345.84" y="32.35" width="95.72" height="10.55" style="fill: rgb(224, 224, 224); transform-origin: 393.7px 37.625px; user-select: auto;" id="elo0w40p96sig" class="animable"></rect><path d="M352.93,37.85a1.32,1.32,0,1,1-1.32-1.31A1.31,1.31,0,0,1,352.93,37.85Z" style="fill: rgb(245, 245, 245); transform-origin: 351.61px 37.86px; user-select: auto;" id="elb5vo6hwiahl" class="animable"></path><circle cx="356.66" cy="37.85" r="1.31" style="fill: rgb(245, 245, 245); transform-origin: 356.66px 37.85px; user-select: auto;" id="el0jl108n0xcr" class="animable"></circle><circle cx="361.7" cy="37.85" r="1.31" style="fill: rgb(245, 245, 245); transform-origin: 361.7px 37.85px; user-select: auto;" id="eloilfhpgqnuc" class="animable"></circle><rect x="25.26" y="270.49" width="122.74" height="82.49" style="fill: rgb(245, 245, 245); transform-origin: 86.63px 311.735px; user-select: auto;" id="elmfvyr2fgnj" class="animable"></rect><rect x="25.26" y="270.49" width="122.74" height="13.53" style="fill: rgb(224, 224, 224); transform-origin: 86.63px 277.255px; user-select: auto;" id="elj47eifn6sv" class="animable"></rect><path d="M34.34,277.55a1.68,1.68,0,1,1-1.68-1.68A1.68,1.68,0,0,1,34.34,277.55Z" style="fill: rgb(245, 245, 245); transform-origin: 32.66px 277.55px; user-select: auto;" id="elfze1qvzh89" class="animable"></path><path d="M40.81,277.55a1.69,1.69,0,1,1-1.68-1.68A1.68,1.68,0,0,1,40.81,277.55Z" style="fill: rgb(245, 245, 245); transform-origin: 39.12px 277.56px; user-select: auto;" id="elv7160336i3" class="animable"></path><path d="M47.28,277.55a1.69,1.69,0,1,1-1.68-1.68A1.68,1.68,0,0,1,47.28,277.55Z" style="fill: rgb(245, 245, 245); transform-origin: 45.59px 277.56px; user-select: auto;" id="elk0o01n6l72" class="animable"></path><rect x="32.86" y="36.6" width="122.74" height="82.49" style="fill: rgb(245, 245, 245); transform-origin: 94.23px 77.845px; user-select: auto;" id="elvpx6bgimuzd" class="animable"></rect><rect x="32.86" y="36.6" width="122.74" height="13.53" style="fill: rgb(224, 224, 224); transform-origin: 94.23px 43.365px; user-select: auto;" id="elo33geugqiyo" class="animable"></rect><path d="M41.94,43.66A1.69,1.69,0,1,1,40.25,42,1.69,1.69,0,0,1,41.94,43.66Z" style="fill: rgb(245, 245, 245); transform-origin: 40.2503px 43.69px; user-select: auto;" id="elfyvvkmbwa1b" class="animable"></path><path d="M48.41,43.66A1.69,1.69,0,1,1,46.72,42,1.69,1.69,0,0,1,48.41,43.66Z" style="fill: rgb(245, 245, 245); transform-origin: 46.7203px 43.69px; user-select: auto;" id="el5syd83w6otl" class="animable"></path><circle cx="53.19" cy="43.66" r="1.68" style="fill: rgb(245, 245, 245); transform-origin: 53.19px 43.66px; user-select: auto;" id="elbp04locvhsr" class="animable"></circle><path d="M73,91.06a9.28,9.28,0,1,1,9.28-9.28A9.28,9.28,0,0,1,73,91.06Zm0-17.55a8.28,8.28,0,1,0,8.28,8.27A8.28,8.28,0,0,0,73,73.51Z" style="fill: rgb(224, 224, 224); transform-origin: 73px 81.78px; user-select: auto;" id="elebusv5lg8xg" class="animable"></path><g id="el5jjc2zctrbi" style="user-select: auto;"><rect x="80.96" y="87.52" width="1" height="9.08" style="fill: rgb(224, 224, 224); transform-origin: 81.46px 92.06px; transform: rotate(-42.76deg); user-select: auto;" class="animable" id="eljzbt4oadpt"></rect></g><path d="M112.69,92.56a10.78,10.78,0,1,1,10.77-10.78A10.79,10.79,0,0,1,112.69,92.56Zm0-17.55a6.78,6.78,0,1,0,6.77,6.77A6.78,6.78,0,0,0,112.69,75Z" style="fill: rgb(224, 224, 224); transform-origin: 112.68px 81.78px; user-select: auto;" id="elokt1bxmqbil" class="animable"></path><path d="M124.21,97.39a2,2,0,0,1-1.47-.64l-6.17-6.67a2,2,0,0,1,2.94-2.71L125.68,94a2,2,0,0,1-1.47,3.36Z" style="fill: rgb(224, 224, 224); transform-origin: 121.146px 92.0779px; user-select: auto;" id="elt7nzi6qypj" class="animable"></path><rect x="344.55" y="226.53" width="116.11" height="78.03" style="fill: rgb(250, 250, 250); transform-origin: 402.605px 265.545px; user-select: auto;" id="elno0ad0h0c6j" class="animable"></rect><path d="M375.9,274.45H364.77l-2.44,5.4h-1.51l8.83-19.19h1.4l8.83,19.19h-1.51Zm-.52-1.18-5-11.08-5,11.08Z" style="fill: rgb(224, 224, 224); transform-origin: 370.35px 270.255px; user-select: auto;" id="elhpbnex2sis5" class="animable"></path><path d="M393.26,270.77v9.08H392V277.3a5.52,5.52,0,0,1-5.16,2.66c-3.21,0-5.15-1.65-5.15-4.09,0-2.16,1.37-4,5.34-4h4.91v-1.15c0-2.66-1.45-4.09-4.25-4.09a7.4,7.4,0,0,0-4.93,1.81l-.69-1a8.69,8.69,0,0,1,5.73-2C391.29,265.43,393.26,267.24,393.26,270.77Zm-1.37,4.86v-2.69H387c-3,0-4,1.23-4,2.88,0,1.86,1.45,3,4,3A4.9,4.9,0,0,0,391.89,275.63Z" style="fill: rgb(224, 224, 224); transform-origin: 387.475px 272.707px; user-select: auto;" id="elhjgu5zn38xf" class="animable"></path><path d="M424.58,275.74h-8.91l-1.7,4.11h-4.56L418,260.66h4.39l8.58,19.19h-4.66Zm-1.4-3.38-3-7.35-3.05,7.35Z" style="fill: rgb(224, 224, 224); transform-origin: 420.19px 270.255px; user-select: auto;" id="elnfesd9nevgo" class="animable"></path><path d="M445.69,271.43v8.42h-4V278c-.79,1.35-2.33,2.06-4.5,2.06-3.45,0-5.51-1.92-5.51-4.47s1.84-4.42,6.34-4.42h3.4c0-1.83-1.1-2.9-3.4-2.9a7.08,7.08,0,0,0-4.25,1.37l-1.54-3a11.35,11.35,0,0,1,6.36-1.78C443.09,264.88,445.69,267,445.69,271.43Zm-4.27,3.76v-1.51h-2.94c-2,0-2.63.74-2.63,1.73s.9,1.78,2.41,1.78A3.17,3.17,0,0,0,441.42,275.19Z" style="fill: rgb(224, 224, 224); transform-origin: 438.685px 272.459px; user-select: auto;" id="elk7seaogzd3" class="animable"></path><rect x="344.55" y="226.53" width="116.11" height="12.8" style="fill: rgb(224, 224, 224); transform-origin: 402.605px 232.93px; user-select: auto;" id="eldhm1q57mekw" class="animable"></rect><path d="M353.14,233.21a1.59,1.59,0,1,1-1.59-1.59A1.59,1.59,0,0,1,353.14,233.21Z" style="fill: rgb(245, 245, 245); transform-origin: 351.55px 233.21px; user-select: auto;" id="elde7t6k8inqp" class="animable"></path><path d="M359.26,233.21a1.6,1.6,0,1,1-1.59-1.59A1.59,1.59,0,0,1,359.26,233.21Z" style="fill: rgb(245, 245, 245); transform-origin: 357.66px 233.22px; user-select: auto;" id="elrwyuy1gcq1" class="animable"></path><path d="M365.38,233.21a1.6,1.6,0,1,1-1.59-1.59A1.59,1.59,0,0,1,365.38,233.21Z" style="fill: rgb(245, 245, 245); transform-origin: 363.78px 233.22px; user-select: auto;" id="elez81dywesgh" class="animable"></path><path d="M460.66,304.57s0-.49,0-1.43,0-2.32,0-4.12c0-3.62,0-8.92-.05-15.7,0-13.56-.07-33-.11-56.79l.2.21-116.1,0h0l.26-.26c0,27.81,0,54.25,0,78l-.24-.24,83.64.12,23.9.06,6.36,0h1.65l.56,0h-2.15l-6.31,0-23.85.07-83.8.12h-.24v-.24c0-23.79,0-50.23,0-78v-.26h.27l116.1.06h.21v.2c0,23.8-.08,43.33-.11,56.92,0,6.76,0,12.05-.05,15.65,0,1.79,0,3.15,0,4.09S460.66,304.57,460.66,304.57Z" style="fill: rgb(224, 224, 224); transform-origin: 402.67px 265.36px; user-select: auto;" id="elewc4qesxde4" class="animable"></path></g><g id="freepik--Floor--inject-49" class="animable" style="transform-origin: 250px 478.49px; user-select: auto;"><path d="M452.35,478.49c0,.15-90.61.26-202.34.26s-202.36-.11-202.36-.26,90.59-.26,202.36-.26S452.35,478.35,452.35,478.49Z" style="fill: rgb(38, 50, 56); transform-origin: 250px 478.49px; user-select: auto;" id="elxr7w3zeq4mj" class="animable"></path></g><g id="freepik--Device--inject-49" class="animable" style="transform-origin: 250.02px 224.535px; user-select: auto;"><path d="M358.43,397.75l-217-.12a12.16,12.16,0,0,1-12.15-12.16l.17-322a12.17,12.17,0,0,1,12.16-12.15l217,.12a12.16,12.16,0,0,1,12.15,12.16l-.17,322A12.17,12.17,0,0,1,358.43,397.75Z" style="fill: rgb(38, 50, 56); transform-origin: 250.02px 224.535px; user-select: auto;" id="elz0ofg1bm0lg" class="animable"></path><rect x="136.49" y="75.28" width="226.12" height="289.24" style="fill: rgb(255, 255, 255); transform-origin: 249.55px 219.9px; user-select: auto;" id="elsy9pgvtrdu" class="animable"></rect><path d="M259.18,380.29a9.26,9.26,0,1,1-9.26-9.27A9.25,9.25,0,0,1,259.18,380.29Z" style="fill: rgb(69, 90, 100); transform-origin: 249.92px 380.28px; user-select: auto;" id="elkw8jai18nop" class="animable"></path><rect x="213.74" y="61.32" width="72.69" height="3.83" rx="1.22" style="fill: rgb(69, 90, 100); transform-origin: 250.085px 63.235px; user-select: auto;" id="elfj86a48z02h" class="animable"></rect><path d="M284.78,225.29c0,.15-16.36.26-36.54.26s-36.54-.11-36.54-.26,16.36-.26,36.54-.26S284.78,225.15,284.78,225.29Z" style="fill: rgb(255, 255, 255); transform-origin: 248.24px 225.29px; user-select: auto;" id="elbhvw4epkx8" class="animable"></path><rect x="203" y="188.77" width="98.05" height="41.86" rx="10.22" style="fill: #00BFA6; transform-origin: 252.025px 209.7px; user-select: auto;" id="elcmvtzwfyx0s" class="animable"></rect><g id="elt944qimqe1" style="user-select: auto;"><g style="opacity: 0.3; transform-origin: 252.025px 209.7px; user-select: auto;" class="animable" id="el2cq8qs9u7lo"><rect x="203" y="188.77" width="98.05" height="41.86" rx="10.22" id="eleq4sab9gf1t" class="animable" style="transform-origin: 252.025px 209.7px; user-select: auto;"></rect></g></g><rect x="203" y="183.71" width="98.05" height="41.86" rx="10.22" style="fill: #00BFA6; transform-origin: 252.025px 204.64px; user-select: auto;" id="elx8r8zzuut3" class="animable"></rect><g id="elj6e6dlxy2zk" style="user-select: auto;"><g style="opacity: 0.4; transform-origin: 252.02px 195.7px; user-select: auto;" class="animable" id="elu1mwptgi6f"><path d="M212.2,205.69h79.64a7.49,7.49,0,0,0,7.46-7.53v-4.93a7.49,7.49,0,0,0-7.46-7.52H212.2a7.49,7.49,0,0,0-7.46,7.52v4.93A7.49,7.49,0,0,0,212.2,205.69Z" style="fill: rgb(255, 255, 255); transform-origin: 252.02px 195.7px; user-select: auto;" id="el9dh6qao7iu" class="animable"></path></g></g><path d="M205.53,197.54c.15,0,.27,5.64.27,12.59s-.12,12.59-.27,12.59-.26-5.64-.26-12.59S205.39,197.54,205.53,197.54Z" style="fill: rgb(255, 255, 255); transform-origin: 205.535px 210.13px; user-select: auto;" id="el6s1zjdo1fcu" class="animable"></path><path d="M294.17,185.09a8.56,8.56,0,0,1-.88,0l-2.51.07-9.24.15-30.48.31-30.49.15h-9.24l-2.51,0a4.59,4.59,0,0,1-.88-.05l.87-.06,2.52-.06,9.23-.16,30.49-.3,30.49-.15h9.24l2.51,0A4.59,4.59,0,0,1,294.17,185.09Z" style="fill: rgb(255, 255, 255); transform-origin: 251.055px 185.382px; user-select: auto;" id="elxmyf0fjzl4" class="animable"></path><path d="M282,287.85c0,.14-13.08.26-29.21.26s-29.23-.12-29.23-.26,13.08-.26,29.23-.26S282,287.71,282,287.85Z" style="fill: rgb(255, 255, 255); transform-origin: 252.78px 287.85px; user-select: auto;" id="elgfmyomp6vuj" class="animable"></path><path d="M278.29,249.46c0,.14-12.33.26-27.52.26s-27.53-.12-27.53-.26,12.32-.26,27.53-.26S278.29,249.31,278.29,249.46Z" style="fill: rgb(255, 255, 255); transform-origin: 250.765px 249.46px; user-select: auto;" id="elr7fumcb2xhq" class="animable"></path><rect x="203.96" y="252.15" width="98.05" height="41.86" rx="19.89" style="fill: #00BFA6; transform-origin: 252.985px 273.08px; user-select: auto;" id="eluuyi7f70aga" class="animable"></rect><g id="elqgoqhzhpl9" style="user-select: auto;"><g style="opacity: 0.3; transform-origin: 252.985px 273.08px; user-select: auto;" class="animable" id="elumd86muc92"><rect x="203.96" y="252.15" width="98.05" height="41.86" rx="19.89" id="elabh3ty72cl8" class="animable" style="transform-origin: 252.985px 273.08px; user-select: auto;"></rect></g></g><rect x="203.96" y="245.84" width="98.05" height="41.86" rx="19.89" style="fill: #00BFA6; transform-origin: 252.985px 266.77px; user-select: auto;" id="elut337v3w5m" class="animable"></rect><g id="el11wuqfqkyoe" style="user-select: auto;"><g style="opacity: 0.4; transform-origin: 253.33px 257.739px; user-select: auto;" class="animable" id="eluf7pvdvdff"><path d="M290.55,251.67c-4.67-2.52-10.24-2.53-15.54-2.48-12.15.1-26.57.18-38.71.29-6.37.05-12.12-1.25-18,1.11s-10,9.37-10.53,15.72l91.12-.42A16.16,16.16,0,0,0,290.55,251.67Z" style="fill: rgb(255, 255, 255); transform-origin: 253.33px 257.739px; user-select: auto;" id="elh4piznwoyc9" class="animable"></path></g></g><path d="M226,285a5.29,5.29,0,0,1-1.29,0,16.76,16.76,0,0,1-3.46-.7,18.51,18.51,0,0,1-13.1-17.58,16.44,16.44,0,0,1,.31-3.52,5.87,5.87,0,0,1,.34-1.24,34.52,34.52,0,0,0-.28,4.75,18.82,18.82,0,0,0,12.84,17.24A33,33,0,0,0,226,285Z" style="fill: rgb(255, 255, 255); transform-origin: 217.073px 273.5px; user-select: auto;" id="el4kp5f1zuxny" class="animable"></path><path d="M297.21,276.67c-.1,0,.5-1.24,1-3.3a21.18,21.18,0,0,0,.61-3.68,24.37,24.37,0,0,0-.13-4.55,23.83,23.83,0,0,0-1.08-4.42,21.73,21.73,0,0,0-1.57-3.39c-1.06-1.84-2-2.83-1.88-2.9s.26.21.67.66a7.76,7.76,0,0,1,.7.85,12.55,12.55,0,0,1,.83,1.21,19.18,19.18,0,0,1,1.7,3.4,22.46,22.46,0,0,1,1.14,4.52,21.73,21.73,0,0,1,.1,4.67,19.05,19.05,0,0,1-.74,3.73,11.52,11.52,0,0,1-.48,1.38,7.75,7.75,0,0,1-.44,1A3.77,3.77,0,0,1,297.21,276.67Z" style="fill: rgb(255, 255, 255); transform-origin: 296.765px 265.545px; user-select: auto;" id="el5uv9iqtaaub" class="animable"></path><rect x="204.27" y="129.83" width="98.05" height="41.86" style="fill: #00BFA6; transform-origin: 253.295px 150.76px; user-select: auto;" id="elq9uxj2p98t" class="animable"></rect><g id="el9zumkipjus" style="user-select: auto;"><g style="opacity: 0.3; transform-origin: 253.295px 150.76px; user-select: auto;" class="animable" id="elrpiy9l5l4f"><rect x="204.27" y="129.83" width="98.05" height="41.86" id="el93vqtl31j1" class="animable" style="transform-origin: 253.295px 150.76px; user-select: auto;"></rect></g></g><rect x="204.27" y="124.36" width="98.05" height="41.86" style="fill: #00BFA6; transform-origin: 253.295px 145.29px; user-select: auto;" id="el27nl1gshowa" class="animable"></rect><g id="el59r0g2e9t15" style="user-select: auto;"><g style="opacity: 0.4; transform-origin: 253.34px 135.3px; user-select: auto;" class="animable" id="elfb5aiklykdi"><rect x="205.63" y="125.31" width="95.42" height="19.98" rx="2.7" style="fill: rgb(255, 255, 255); transform-origin: 253.34px 135.3px; user-select: auto;" id="elpugx0m0vr" class="animable"></rect></g></g><path d="M205.41,164.18c-.14,0-.26-7.74-.26-17.28s.12-17.27.26-17.27.26,7.73.26,17.27S205.56,164.18,205.41,164.18Z" style="fill: rgb(255, 255, 255); transform-origin: 205.41px 146.905px; user-select: auto;" id="elgjacbua7oh7" class="animable"></path><path d="M296.7,165.71c0,.14-19.87.26-44.37.26s-44.39-.12-44.39-.26,19.87-.26,44.39-.26S296.7,165.56,296.7,165.71Z" style="fill: rgb(255, 255, 255); transform-origin: 252.32px 165.71px; user-select: auto;" id="elwbbh34pguqj" class="animable"></path><path d="M237.59,96l.53-1.16a4,4,0,0,0,2.19.69c.91,0,1.29-.3,1.29-.71,0-1.25-3.87-.39-3.87-2.86,0-1.14.91-2.08,2.8-2.08a4.46,4.46,0,0,1,2.31.59l-.47,1.17a3.8,3.8,0,0,0-1.85-.52c-.91,0-1.26.34-1.26.76,0,1.23,3.87.38,3.87,2.82,0,1.12-.93,2.07-2.83,2.07A4.81,4.81,0,0,1,237.59,96Z" style="fill: rgb(38, 50, 56); transform-origin: 240.36px 93.325px; user-select: auto;" id="elldivn4blst" class="animable"></path><path d="M245.47,91.21h-2.13V90h5.8v1.25H247v5.4h-1.54Z" style="fill: rgb(38, 50, 56); transform-origin: 246.24px 93.325px; user-select: auto;" id="elhqcp3n8dqqo" class="animable"></path><path d="M253,94.25v2.36H251.5V94.24L248.92,90h1.64l1.78,3,1.77-3h1.51Z" style="fill: rgb(38, 50, 56); transform-origin: 252.27px 93.305px; user-select: auto;" id="elxq1ilvdtt" class="animable"></path><path d="M256.21,90h1.54v5.4h3.34v1.25h-4.88Z" style="fill: rgb(38, 50, 56); transform-origin: 258.65px 93.325px; user-select: auto;" id="elpg19f8t5d" class="animable"></path><path d="M267.11,95.38v1.23H262V90h5v1.23h-3.5v1.45h3.09v1.2h-3.09v1.54Z" style="fill: rgb(38, 50, 56); transform-origin: 264.555px 93.305px; user-select: auto;" id="ellkrg616h3i" class="animable"></path><rect x="136.44" y="306.56" width="226.09" height="58.02" style="fill: rgb(245, 245, 245); transform-origin: 249.485px 335.57px; user-select: auto;" id="elstx0xfpfj1l" class="animable"></rect><rect x="309.44" y="323.83" width="29.5" height="29.5" rx="14.02" style="fill: #00BFA6; transform-origin: 324.19px 338.58px; user-select: auto;" id="elkkkhnyvr0os" class="animable"></rect><rect x="233.43" y="323.83" width="29.5" height="29.5" rx="14.02" style="fill: #00BFA6; transform-origin: 248.18px 338.58px; user-select: auto;" id="elollmanwvftr" class="animable"></rect><path d="M248.91,353.33a22.36,22.36,0,0,0,3.62-.59,14,14,0,0,0,7.88-5.74,14.2,14.2,0,0,0,2.24-6.4,17.69,17.69,0,0,0-.91-7.74,13.75,13.75,0,0,0-5.4-6.58,13,13,0,0,0-4.19-1.79,18.67,18.67,0,0,0-4.7-.4,14,14,0,0,0-8.6,3,13.82,13.82,0,0,0-4.68,7.11,14.5,14.5,0,0,0-.51,4,18.91,18.91,0,0,0,.26,3.81,14.16,14.16,0,0,0,2.9,6.13,13.93,13.93,0,0,0,8.43,4.88l.82.13.73.05c.46,0,.84,0,1.16.06l.71,0,.24,0a.75.75,0,0,1-.24,0l-.71,0a11.48,11.48,0,0,1-1.16,0l-.74,0-.84-.11a13,13,0,0,1-4.15-1.3,14.27,14.27,0,0,1-4.54-3.55,14.48,14.48,0,0,1-3-6.28,19.92,19.92,0,0,1-.29-3.89,15.05,15.05,0,0,1,.51-4.12,14.25,14.25,0,0,1,4.82-7.39,14.5,14.5,0,0,1,8.92-3.14,18.65,18.65,0,0,1,4.83.42,13.55,13.55,0,0,1,4.34,1.86,14.27,14.27,0,0,1,5.57,6.83c1.88,5.41,1,11-1.48,14.53a14.17,14.17,0,0,1-4.14,4,13.08,13.08,0,0,1-4,1.72l-.82.2-.74.1a6.53,6.53,0,0,1-1.15.1h-1Z" style="fill: rgb(38, 50, 56); transform-origin: 248.238px 338.396px; user-select: auto;" id="elfy1ydeeek2v" class="animable"></path><rect x="157.77" y="323.83" width="29.5" height="29.5" rx="14.02" style="fill: #00BFA6; transform-origin: 172.52px 338.58px; user-select: auto;" id="elekqpko1en2h" class="animable"></rect><g id="el3r45pmn64ph" style="user-select: auto;"><g style="opacity: 0.3; transform-origin: 172.52px 338.58px; user-select: auto;" class="animable" id="eluqtvdhm2plh"><rect x="157.77" y="323.83" width="29.5" height="29.5" rx="14.02" id="elqc86t0k4ms7" class="animable" style="transform-origin: 172.52px 338.58px; user-select: auto;"></rect></g></g><rect x="157.77" y="321.47" width="29.5" height="29.5" rx="14.02" style="fill: #00BFA6; transform-origin: 172.52px 336.22px; user-select: auto;" id="el1j4sbmqzfs7" class="animable"></rect><g id="el8zotno15q4l" style="user-select: auto;"><g style="opacity: 0.3; transform-origin: 172.52px 329.73px; user-select: auto;" class="animable" id="elwctmx1rl06g"><path d="M172.52,323.23a13,13,0,0,0-13,13h26A13,13,0,0,0,172.52,323.23Z" style="fill: rgb(255, 255, 255); transform-origin: 172.52px 329.73px; user-select: auto;" id="ellcod4giwarj" class="animable"></path></g></g><path d="M174.71,348.75a4.13,4.13,0,0,1-1.07.24,10.7,10.7,0,0,1-3,0,12.72,12.72,0,0,1-8.33-5,14.28,14.28,0,0,1-2.67-9.36,12.4,12.4,0,0,1,.54-2.94,3.63,3.63,0,0,1,.41-1,25,25,0,0,0-.58,4,14.51,14.51,0,0,0,2.72,9,12.62,12.62,0,0,0,3.93,3.46,13,13,0,0,0,4,1.47A19.38,19.38,0,0,0,174.71,348.75Z" style="fill: rgb(255, 255, 255); transform-origin: 167.158px 339.893px; user-select: auto;" id="elus45uqg8d1" class="animable"></path><path d="M179.74,345.75c-.07-.08.92-.79,2.09-2.31a13.43,13.43,0,0,0,1.59-14c-.81-1.74-1.6-2.66-1.53-2.72s.25.19.6.61a11.22,11.22,0,0,1,1.26,1.95,13,13,0,0,1-1.64,14.43,10.51,10.51,0,0,1-1.66,1.62A2.82,2.82,0,0,1,179.74,345.75Z" style="fill: rgb(255, 255, 255); transform-origin: 182.476px 336.231px; user-select: auto;" id="eliq95xlog11q" class="animable"></path><path d="M168.09,324.12c0,.14-.64.37-1.4.72s-1.37.7-1.46.58.41-.67,1.24-1.05S168.07,324,168.09,324.12Z" style="fill: rgb(255, 255, 255); transform-origin: 166.655px 324.745px; user-select: auto;" id="ele0juriqw3a9" class="animable"></path><path d="M208.27,364.5c-.15,0-.26-13-.26-29s.11-29,.26-29,.26,13,.26,29S208.41,364.5,208.27,364.5Z" style="fill: rgb(224, 224, 224); transform-origin: 208.27px 335.5px; user-select: auto;" id="el1y78ecinfce" class="animable"></path><path d="M288.09,364.5c-.14,0-.26-13-.26-29s.12-29,.26-29,.26,13,.26,29S288.23,364.5,288.09,364.5Z" style="fill: rgb(224, 224, 224); transform-origin: 288.09px 335.5px; user-select: auto;" id="elp1r9p2xp9u" class="animable"></path><path d="M356.73,107.77c0,.15-48.38.26-108,.26s-108.06-.11-108.06-.26,48.37-.26,108.06-.26S356.73,107.63,356.73,107.77Z" style="fill: rgb(224, 224, 224); transform-origin: 248.7px 107.77px; user-select: auto;" id="elj813ejbxc39" class="animable"></path></g><g id="freepik--Plant--inject-49" class="animable" style="transform-origin: 401.333px 383.535px; user-select: auto;"><path d="M413.78,343.68c-9.32-14.26-9-35.11,2.17-48,3.46-4,8.29-7.48,13.56-7s9.75,5.09,11.39,10.25S442,309.64,441,315c-1.35,7.46-3.62,15.1-8.79,20.64s-11.78,11.71-18.44,8.07" style="fill: #00BFA6; transform-origin: 424.55px 316.719px; user-select: auto;" id="el5sq0ied21ia" class="animable"></path><path d="M417.94,411.87a21.32,21.32,0,0,1,5.94-24.21c2.14-1.75,4.95-3.1,7.62-2.39s4.56,3.5,4.94,6.31a17.48,17.48,0,0,1-1.4,8.29c-1.37,3.73-3.23,7.46-6.4,9.84s-7.6,4.63-10.7,2.16" style="fill: #00BFA6; transform-origin: 426.439px 399.01px; user-select: auto;" id="el2rjg1fml50a" class="animable"></path><path d="M395.45,407c2.56-12.65-4.1-26.6-15.55-32.55-3.55-1.85-7.92-2.94-11.5-1.15s-5.43,6.31-5.14,10.4,2.26,7.86,4.43,11.34c3,4.87,6.77,9.61,12,12.06s12.14,4.32,15.8-.1" style="fill: #00BFA6; transform-origin: 379.613px 391.028px; user-select: auto;" id="eluwmkc15nedi" class="animable"></path><path d="M397.07,372.78c4.46-14.41-3.11-31.88-15.73-40.15-3.91-2.56-8.87-4.35-13.25-2.68s-7,6.7-7.19,11.49,1.7,9.41,3.82,13.71c3,6,6.75,12,12.5,15.43s15.07,6.91,19.85,2.2" style="fill: #00BFA6; transform-origin: 379.623px 352.185px; user-select: auto;" id="eldcq17ctvrfd" class="animable"></path><path d="M406,443.2a3.17,3.17,0,0,1-.14-.7q-.12-.78-.3-2c-.06-.44-.13-.93-.2-1.45s-.22-1.1-.33-1.71c-.24-1.23-.48-2.64-.88-4.16-.19-.77-.38-1.57-.58-2.4s-.5-1.69-.76-2.57c-.48-1.79-1.19-3.64-1.85-5.61a110.31,110.31,0,0,0-5.57-12.34,107.78,107.78,0,0,0-7.2-11.45c-1.28-1.64-2.43-3.26-3.65-4.65-.6-.7-1.17-1.39-1.73-2l-1.68-1.81c-1-1.18-2.08-2.15-3-3L376.94,386l-1.1-1c-.61-.56-1.11-1-1.51-1.36a3.28,3.28,0,0,1-.5-.51,3.44,3.44,0,0,1,.58.41l1.59,1.28,1.14.93,1.28,1.19c.92.86,2,1.82,3.06,3l1.71,1.8,1.77,2c1.25,1.38,2.42,3,3.71,4.64a94.11,94.11,0,0,1,12.84,23.92c.66,2,1.35,3.86,1.82,5.66l.72,2.6c.19.84.37,1.65.55,2.42.37,1.54.59,3,.79,4.2.1.61.2,1.19.28,1.73s.11,1,.15,1.46c.08.83.14,1.5.19,2A2.74,2.74,0,0,1,406,443.2Z" style="fill: rgb(38, 50, 56); transform-origin: 389.933px 413.165px; user-select: auto;" id="el5be63a7m8dp" class="animable"></path><path d="M405.7,445.79a1.07,1.07,0,0,1,0-.29c0-.22,0-.5.07-.83.07-.79.17-1.85.29-3.2.07-.7.15-1.48.23-2.32s.09-1.76.14-2.75c.07-2,.26-4.23.19-6.73,0-1.25,0-2.55,0-3.91s-.14-2.77-.21-4.24c-.1-2.93-.5-6-.85-9.31a133.34,133.34,0,0,0-12.14-40.93c-1.49-2.94-2.85-5.76-4.36-8.27-.74-1.27-1.4-2.52-2.13-3.67s-1.45-2.24-2.12-3.29c-1.3-2.13-2.69-3.91-3.83-5.53-.58-.8-1.1-1.57-1.62-2.24l-1.45-1.81-2-2.53-.51-.66a2.56,2.56,0,0,1-.16-.24s.08.06.21.2l.55.62,2.09,2.46,1.49,1.78c.53.67,1.07,1.42,1.67,2.21,1.17,1.61,2.58,3.38,3.91,5.5l2.16,3.28c.74,1.15,1.41,2.4,2.17,3.66,1.54,2.51,2.92,5.34,4.43,8.28a130.14,130.14,0,0,1,12.19,41.11c.34,3.29.72,6.41.8,9.36.05,1.47.17,2.88.17,4.25s0,2.67,0,3.93c0,2.5-.18,4.75-.28,6.74-.07,1-.11,1.91-.19,2.76s-.2,1.61-.28,2.31c-.18,1.35-.31,2.41-.41,3.19-.05.34-.09.61-.12.83A.8.8,0,0,1,405.7,445.79Z" style="fill: rgb(38, 50, 56); transform-origin: 391.16px 394.415px; user-select: auto;" id="el58n60p5qrws" class="animable"></path><path d="M430,305.86a.86.86,0,0,1-.12.27l-.4.75-1.59,2.84c-.35.62-.76,1.29-1.15,2.06s-.8,1.61-1.25,2.51L424,317.17c-.48,1-.95,2.14-1.46,3.3s-1.06,2.36-1.58,3.64-1,2.63-1.55,4c-.26.69-.53,1.4-.81,2.12s-.5,1.46-.75,2.21c-.51,1.51-1,3.05-1.56,4.64-2,6.39-3.85,13.51-5.43,21.06s-2.61,14.86-3.4,21.51-1.18,12.66-1.32,17.73c-.13,2.52-.16,4.81-.16,6.83s0,3.74,0,5.15,0,2.47.05,3.27v.85a1.11,1.11,0,0,1,0,.29,1.36,1.36,0,0,1,0-.29c0-.23,0-.51-.05-.85,0-.79-.1-1.88-.16-3.26s-.12-3.15-.12-5.16,0-4.31.08-6.85c.08-5.07.54-11.1,1.19-17.78s1.82-14,3.36-21.56,3.48-14.71,5.49-21.12c.55-1.58,1.08-3.13,1.59-4.63l.77-2.22L419,328l1.59-4c.53-1.28,1.1-2.48,1.61-3.64s1-2.26,1.51-3.29,1-2,1.49-2.87l1.29-2.49c.41-.76.84-1.42,1.2-2,.72-1.18,1.28-2.12,1.7-2.8l.45-.71A1.19,1.19,0,0,1,430,305.86Z" style="fill: rgb(38, 50, 56); transform-origin: 417.85px 359.815px; user-select: auto;" id="elcocdbkbzuer" class="animable"></path><path d="M426.81,393.39a12.36,12.36,0,0,1-1,1.74c-.68,1.09-1.62,2.7-2.71,4.72s-2.32,4.47-3.54,7.24-2.38,5.91-3.43,9.26-1.79,6.6-2.39,9.57-.95,5.7-1.17,8-.36,4.15-.42,5.43a12.64,12.64,0,0,1-.16,2,12.25,12.25,0,0,1-.07-2c0-1.29,0-3.15.22-5.46s.52-5,1.05-8a91.61,91.61,0,0,1,2.36-9.65,88.25,88.25,0,0,1,3.5-9.3,77.42,77.42,0,0,1,3.67-7.23c1.15-2,2.15-3.59,2.89-4.64A13.28,13.28,0,0,1,426.81,393.39Z" style="fill: rgb(38, 50, 56); transform-origin: 419.358px 417.37px; user-select: auto;" id="elgffeikswg18" class="animable"></path><polygon points="387.72 436.78 428.68 436.78 423.73 478.62 392.82 478.62 387.72 436.78" style="fill: rgb(69, 90, 100); transform-origin: 408.2px 457.7px; user-select: auto;" id="el9c28x084ebs" class="animable"></polygon><polygon points="389.21 474.1 392.69 478.62 423.73 478.62 427.3 474.25 389.21 474.1" style="fill: rgb(38, 50, 56); transform-origin: 408.255px 476.36px; user-select: auto;" id="elunxn8jspw9n" class="animable"></polygon><path d="M427.09,449.08c0,.17-8.51.31-19,.31s-19-.14-19-.31,8.5-.3,19-.3S427.09,448.92,427.09,449.08Z" style="fill: rgb(250, 250, 250); transform-origin: 408.09px 449.085px; user-select: auto;" id="elzv8uxjnxu5m" class="animable"></path><path d="M427.09,451.87c0,.17-8.51.31-19,.31s-19-.14-19-.31,8.5-.3,19-.3S427.09,451.7,427.09,451.87Z" style="fill: rgb(250, 250, 250); transform-origin: 408.09px 451.875px; user-select: auto;" id="ellg9hl5mf9oc" class="animable"></path><path d="M426.57,454.57c0,.17-8.2.3-18.32.3s-18.32-.13-18.32-.3,8.2-.31,18.32-.31S426.57,454.4,426.57,454.57Z" style="fill: rgb(250, 250, 250); transform-origin: 408.25px 454.565px; user-select: auto;" id="el1az3jubein4" class="animable"></path><path d="M394,346.61a1.74,1.74,0,0,1,0,.4c0,.3-.05.68-.09,1.13-.11,1.05-.25,2.46-.42,4.17-.38,3.52-.92,8.38-1.55,13.74,0,.2-.05.41-.07.6l0,.18h-.18c-5.27.08-10,.13-13.42.15h-4.05l-1.1,0a1.42,1.42,0,0,1-.38,0,1.65,1.65,0,0,1,.38-.05l1.1-.05,4-.13c3.42-.09,8.16-.19,13.42-.28l-.2.19c0-.19,0-.4.07-.6.63-5.36,1.22-10.21,1.67-13.72.22-1.71.41-3.11.55-4.16l.17-1.12Q394,346.61,394,346.61Z" style="fill: rgb(38, 50, 56); transform-origin: 383.376px 356.801px; user-select: auto;" id="elih8aef32drq" class="animable"></path><path d="M384.66,334.1s0,.14,0,.41,0,.7,0,1.17c0,1.08,0,2.54,0,4.32-.05,3.64-.15,8.68-.28,14.24,0,.22,0,.45,0,.66v.21h-.22a126,126,0,0,0-13.78-.31c-1.75,0-3.17.12-4.15.17l-1.13.06a1.49,1.49,0,0,1-.39,0,1.52,1.52,0,0,1,.39-.07c.25,0,.63-.09,1.12-.13,1-.1,2.39-.22,4.15-.31a109.61,109.61,0,0,1,13.82.18l-.22.21c0-.21,0-.44,0-.66.14-5.56.28-10.6.41-14.24.07-1.77.13-3.23.17-4.31,0-.47,0-.86.07-1.18A1.87,1.87,0,0,1,384.66,334.1Z" style="fill: rgb(38, 50, 56); transform-origin: 374.685px 344.605px; user-select: auto;" id="eldcpz1thfhc8" class="animable"></path><path d="M373.76,329.83A8.48,8.48,0,0,1,374,331c.15.84.36,1.95.6,3.29.53,2.78,1.36,6.61,2.53,10.81l.13.44-.42-.2-.49-.24A34.92,34.92,0,0,0,365.45,342c-1.45-.18-2.64-.25-3.46-.28a9.18,9.18,0,0,1-1.27-.07,1.06,1.06,0,0,1,.33,0c.21,0,.53-.05.94-.05a28,28,0,0,1,3.49.15,33.09,33.09,0,0,1,11.07,3.11l.5.24-.29.24a103.25,103.25,0,0,1-2.42-10.87c-.23-1.4-.39-2.54-.48-3.32A7,7,0,0,1,373.76,329.83Z" style="fill: rgb(38, 50, 56); transform-origin: 368.99px 337.685px; user-select: auto;" id="elius0v05eblm" class="animable"></path><path d="M431.61,406.11c0,.06-1.19-.06-3.1-.13a51.29,51.29,0,0,0-7.45.24q-.88.09-1.71.21l-.2,0,0-.2c-.44-2.47-.81-4.66-1.06-6.22a16.68,16.68,0,0,1-.32-2.53,16.83,16.83,0,0,1,.59,2.48c.32,1.55.74,3.73,1.2,6.2l-.23-.17c.55-.08,1.13-.15,1.73-.21a42.14,42.14,0,0,1,7.51-.13c1,.08,1.73.17,2.26.25A3.33,3.33,0,0,1,431.61,406.11Z" style="fill: rgb(38, 50, 56); transform-origin: 424.69px 401.955px; user-select: auto;" id="el51jayb048ga" class="animable"></path><path d="M435.48,398.42c0,.07-1.15-.2-3-.43a32.45,32.45,0,0,0-7.27-.07c-.44,0-.88.1-1.29.16l-.21,0,0-.21c-.26-2.55-.47-4.81-.6-6.43a16.33,16.33,0,0,1-.13-2.61,17.81,17.81,0,0,1,.4,2.58c.21,1.62.47,3.87.74,6.41l-.24-.18c.42-.06.86-.12,1.3-.16a28.25,28.25,0,0,1,7.36.19,21.11,21.11,0,0,1,2.18.46A3.09,3.09,0,0,1,435.48,398.42Z" style="fill: rgb(38, 50, 56); transform-origin: 429.226px 393.631px; user-select: auto;" id="elfmbeignnws" class="animable"></path><path d="M438.25,325.59a2.13,2.13,0,0,1-.4.21l-1.2.53-4.43,1.89-14.68,6.08-.79.32-.19.08-.08-.19-6.2-14-1.82-4.23c-.19-.47-.35-.85-.48-1.16a2.78,2.78,0,0,1-.14-.41s.09.12.22.38l.54,1.12c.49,1,1.14,2.46,1.95,4.18l6.31,14-.27-.11.8-.33,14.72-6,4.48-1.77,1.22-.46A1.59,1.59,0,0,1,438.25,325.59Z" style="fill: rgb(38, 50, 56); transform-origin: 423.045px 324.705px; user-select: auto;" id="elc0nh1foo3f" class="animable"></path><path d="M441.84,307.89s-.12.11-.36.27l-1.07.69-4,2.5-13.35,8.13-.21.13-.09-.23c-.07-.21-.16-.43-.24-.65-2.17-5.87-4.14-11.18-5.59-15.09l-1.65-4.58c-.18-.51-.32-.93-.43-1.26a1.64,1.64,0,0,1-.12-.45,2.63,2.63,0,0,1,.2.42c.13.33.3.73.5,1.23l1.77,4.54,5.71,15c.08.22.16.44.24.64l-.3-.1,13.41-8,4.06-2.38,1.12-.63A1.94,1.94,0,0,1,441.84,307.89Z" style="fill: rgb(38, 50, 56); transform-origin: 428.285px 308.48px; user-select: auto;" id="elpse2yru7yrq" class="animable"></path><path d="M440.66,298.45a4.89,4.89,0,0,1-.87.52c-.58.32-1.41.79-2.42,1.41a43.57,43.57,0,0,0-7.43,5.81l-.51.51.17-.7c.18-.74.35-1.51.47-2.3a26.59,26.59,0,0,0-.58-10.92,28.7,28.7,0,0,0-1.05-3.18,6.44,6.44,0,0,1-.43-1.15,7.54,7.54,0,0,1,.58,1.09,24.76,24.76,0,0,1,1.19,3.16,25.49,25.49,0,0,1,.7,11.06c-.13.81-.3,1.59-.48,2.34l-.34-.2a38.82,38.82,0,0,1,7.57-5.75c1-.6,1.89-1,2.49-1.31A5.18,5.18,0,0,1,440.66,298.45Z" style="fill: rgb(38, 50, 56); transform-origin: 434.335px 297.575px; user-select: auto;" id="elbxkj9ahigx5" class="animable"></path><path d="M393.92,390.3a5.05,5.05,0,0,1-.19,1.06c-.14.68-.34,1.66-.57,2.88a70.55,70.55,0,0,0-1.1,9.7v.19h-.18l-.92.05c-4.06.25-7.74.45-10.4.57l-3.16.13a5.48,5.48,0,0,1-1.16,0,7.51,7.51,0,0,1,1.15-.15l3.15-.25c2.66-.2,6.33-.44,10.39-.69l.92,0-.19.19a60.46,60.46,0,0,1,1.23-9.74c.26-1.22.51-2.19.7-2.86A5.87,5.87,0,0,1,393.92,390.3Z" style="fill: rgb(38, 50, 56); transform-origin: 385.08px 397.605px; user-select: auto;" id="el21vlz3k4kvn" class="animable"></path><path d="M385.87,378.76a5.36,5.36,0,0,1-.07,1.07q-.12,1.14-.33,2.91c-.29,2.46-.74,5.89-1.25,9.72l0,.17H384l-1.32.09c-4.17.28-7.92.71-10.63,1.06l-3.21.43a5.77,5.77,0,0,1-1.19.12,9.18,9.18,0,0,1,1.16-.28c.75-.15,1.84-.34,3.2-.56,2.7-.43,6.46-.9,10.64-1.19l1.32-.08-.19.18c.52-3.84,1-7.25,1.38-9.71.19-1.17.34-2.14.46-2.89A7.12,7.12,0,0,1,385.87,378.76Z" style="fill: rgb(38, 50, 56); transform-origin: 376.762px 386.545px; user-select: auto;" id="elz2spleiesyp" class="animable"></path><path d="M376.4,373.79c.06,0-.19,1.13-.48,2.95a51.12,51.12,0,0,0-.66,7.25v.23l-.23,0-.69-.08a64.14,64.14,0,0,0-7.73-.46l-2.36,0a3.62,3.62,0,0,1-.86,0,3.1,3.1,0,0,1,.85-.14c.56-.06,1.36-.12,2.36-.16a50.86,50.86,0,0,1,7.79.34l.7.09-.24.2a42.93,42.93,0,0,1,.8-7.29c.18-.91.36-1.64.5-2.14A2.72,2.72,0,0,1,376.4,373.79Z" style="fill: rgb(38, 50, 56); transform-origin: 369.899px 379.005px; user-select: auto;" id="elglnap6al5v" class="animable"></path><path d="M430.37,385.33a38.29,38.29,0,0,1-1.83,4.16,36.74,36.74,0,0,1-2,4.09,30.31,30.31,0,0,1,3.8-8.25Z" style="fill: rgb(38, 50, 56); transform-origin: 428.455px 389.455px; user-select: auto;" id="elreurrveth8" class="animable"></path><path d="M435.51,390.78a43.37,43.37,0,0,0-4.65,1,40.59,40.59,0,0,0-4.37,1.85,10.61,10.61,0,0,1,4.25-2.25A10.78,10.78,0,0,1,435.51,390.78Z" style="fill: rgb(38, 50, 56); transform-origin: 431px 392.178px; user-select: auto;" id="elpibqzjfwhx" class="animable"></path></g><g id="freepik--Character--inject-49" class="animable" style="transform-origin: 127.445px 302.97px; user-select: auto;"><path d="M151.84,447.23l-.86,20s20,7.59,20.21,11.29l-38.79-.28.08-31.17Z" style="fill: #00BFA6; transform-origin: 151.795px 462.795px; user-select: auto;" id="elxowe12ioini" class="animable"></path><path d="M139.26,465.51a1.59,1.59,0,0,0-1.12,1.81,1.54,1.54,0,0,0,1.79,1.12,1.68,1.68,0,0,0,1.17-1.92,1.6,1.6,0,0,0-2-1" style="fill: rgb(224, 224, 224); transform-origin: 139.622px 466.957px; user-select: auto;" id="elf7f9ttltdba" class="animable"></path><path d="M132.4,478.21v-3.12l37.53,1.41s1.73.77,1.52,2Z" style="fill: rgb(38, 50, 56); transform-origin: 151.934px 476.795px; user-select: auto;" id="eldn87f307oqs" class="animable"></path><path d="M151.33,467.33c0,.19-1,.27-1.91.88s-1.44,1.4-1.62,1.32.12-1.17,1.27-1.89S151.37,467.16,151.33,467.33Z" style="fill: rgb(38, 50, 56); transform-origin: 149.541px 468.343px; user-select: auto;" id="eldiwuthqnir4" class="animable"></path><path d="M155.41,469.06c.05.18-.78.5-1.44,1.3s-.84,1.65-1,1.64-.31-1.08.53-2.07S155.41,468.87,155.41,469.06Z" style="fill: rgb(38, 50, 56); transform-origin: 154.129px 470.488px; user-select: auto;" id="ells6762bm14i" class="animable"></path><path d="M157.7,474c-.17,0-.43-.92.07-2s1.39-1.45,1.47-1.29-.47.71-.87,1.57S157.89,474,157.7,474Z" style="fill: rgb(38, 50, 56); transform-origin: 158.363px 472.337px; user-select: auto;" id="elsrfornpr2z" class="animable"></path><path d="M151,462.73c-.08.17-1-.1-2,0s-1.92.4-2,.24.71-.84,2-.9S151.11,462.58,151,462.73Z" style="fill: rgb(38, 50, 56); transform-origin: 149.002px 462.541px; user-select: auto;" id="elf4iyzynsz96" class="animable"></path><path d="M151.75,458.43a3.66,3.66,0,0,1-2,0,9.06,9.06,0,0,1-2-.64,8.83,8.83,0,0,1-1.12-.61,2.26,2.26,0,0,1-.59-.46.85.85,0,0,1-.08-1,1.11,1.11,0,0,1,.84-.43,3,3,0,0,1,.73.11,7,7,0,0,1,1.22.43,6.8,6.8,0,0,1,1.79,1.2c.9.84,1.21,1.56,1.14,1.59s-.52-.54-1.44-1.24a8.23,8.23,0,0,0-1.74-1,7.34,7.34,0,0,0-1.12-.36c-.41-.11-.76-.11-.87.07s0,.1,0,.22a2.38,2.38,0,0,0,.43.34c.35.23.69.42,1,.6a11.06,11.06,0,0,0,1.89.74A13,13,0,0,1,151.75,458.43Z" style="fill: rgb(38, 50, 56); transform-origin: 148.792px 456.956px; user-select: auto;" id="el97am8raew3i" class="animable"></path><path d="M151.5,458.7a3.14,3.14,0,0,1-.51-1.89,6.6,6.6,0,0,1,.29-2.14,6.41,6.41,0,0,1,.5-1.19,1.65,1.65,0,0,1,1.26-1,.92.92,0,0,1,.81.56,2.74,2.74,0,0,1,.2.71,4.48,4.48,0,0,1,0,1.32,4.63,4.63,0,0,1-.85,2c-.77,1-1.57,1.22-1.58,1.16s.6-.46,1.19-1.43a4.55,4.55,0,0,0,.63-1.83,4.29,4.29,0,0,0,0-1.13c-.06-.42-.22-.75-.37-.71s-.53.3-.69.63a6.27,6.27,0,0,0-.49,1.06,7.36,7.36,0,0,0-.4,1.95C151.4,458,151.6,458.67,151.5,458.7Z" style="fill: rgb(38, 50, 56); transform-origin: 152.542px 455.59px; user-select: auto;" id="elbfxm8clvi6d" class="animable"></path><g id="eloiqph71d1e" style="user-select: auto;"><g style="opacity: 0.3; transform-origin: 141.865px 461.225px; user-select: auto;" class="animable" id="elbak45w2jxqo"><polygon points="132.4 459.01 132.44 463.44 151.14 463.44 151.33 459.01 132.4 459.01" id="elmio924hzo9q" class="animable" style="transform-origin: 141.865px 461.225px; user-select: auto;"></polygon></g></g><polygon points="102.52 445.96 101.13 478.77 83.41 478.38 84.74 445.5 102.52 445.96" style="fill: #00BFA6; transform-origin: 92.965px 462.135px; user-select: auto;" id="elkb2ejlrg8d" class="animable"></polygon><path d="M92.43,477.34c-.15,0,.12-7.19.61-16s1-16,1.15-16-.13,7.19-.61,16S92.57,477.35,92.43,477.34Z" style="fill: rgb(38, 50, 56); transform-origin: 93.3096px 461.34px; user-select: auto;" id="el4dyojbhlztp" class="animable"></path><polygon points="101.22 476.51 83.5 476.06 83.41 478.38 101.13 478.77 101.22 476.51" style="fill: rgb(38, 50, 56); transform-origin: 92.315px 477.415px; user-select: auto;" id="elw79m0ms2ze" class="animable"></polygon><path d="M83.83,467.87a2.58,2.58,0,0,1,.49-.7A13,13,0,0,1,86,465.56a11.73,11.73,0,0,1,2.94-1.78,9.42,9.42,0,0,1,10.94,2.55,8.18,8.18,0,0,1,1.2,2,2.26,2.26,0,0,1,.25.81,19.49,19.49,0,0,0-1.74-2.55,9.45,9.45,0,0,0-6.51-3,10.85,10.85,0,0,0-6.85,2.31C84.67,467,83.9,467.94,83.83,467.87Z" style="fill: rgb(38, 50, 56); transform-origin: 92.58px 466.07px; user-select: auto;" id="elfjrr5e4306" class="animable"></path><g id="ely76hquyfhp" style="user-select: auto;"><g style="opacity: 0.3; transform-origin: 93.15px 456.825px; user-select: auto;" class="animable" id="elpuypf1o2rom"><polygon points="84.36 454.86 84.21 458.47 101.97 458.79 102.09 456.07 84.36 454.86" id="elztfy3caameh" class="animable" style="transform-origin: 93.15px 456.825px; user-select: auto;"></polygon></g></g><polyline points="113.7 319.6 107.97 374.83 103.86 458.01 81.91 458.01 81.32 280.98 144.16 285.46 157.18 378.35 154.57 459.64 130.49 459.64 127.46 382.34 113.7 319.6" style="fill: rgb(69, 90, 100); transform-origin: 119.25px 370.31px; user-select: auto;" id="elb4y7bym64yk" class="animable"></polyline><path d="M113.71,319.6a32.52,32.52,0,0,0,4.26,4.21,33,33,0,0,0,4.64,3.81,33,33,0,0,0-4.27-4.21A34.16,34.16,0,0,0,113.71,319.6Z" style="fill: rgb(38, 50, 56); transform-origin: 118.16px 323.61px; user-select: auto;" id="el20bv9xys8pa" class="animable"></path><path d="M113.77,318.5a62.14,62.14,0,0,0-.12-7.09,61.59,61.59,0,0,0-.41-7.08,63.78,63.78,0,0,0,.53,14.17Z" style="fill: rgb(38, 50, 56); transform-origin: 113.443px 311.415px; user-select: auto;" id="el970a1kdmz8h" class="animable"></path><path d="M106.51,297.88a1.62,1.62,0,0,0-.35,0l-1.09-.06-4.16-.2L86,297h-.25v.26c0,4.64,0,9.9,0,15.45v.48l.17.07,9.68,3.88.09,0,.09,0,8.56-3,.13-.05,0-.13c.63-4.82,1.15-8.84,1.52-11.72.17-1.35.3-2.42.4-3.22a9.51,9.51,0,0,0,.1-1.11,2.56,2.56,0,0,0-.07.32c0,.24-.09.52-.14.87-.13.81-.31,1.9-.52,3.26-.43,2.83-1,6.79-1.74,11.53l.15-.18-8.58,2.91h.18l-9.67-3.91.17.26v-.3c0-5.55,0-10.81,0-15.45l-.26.25,14.72.36,4.23.08h1.14A2,2,0,0,0,106.51,297.88Z" style="fill: rgb(38, 50, 56); transform-origin: 96.13px 307.07px; user-select: auto;" id="els22td7czp1" class="animable"></path><path d="M138.2,298.15a1.25,1.25,0,0,0-.32,0l-1,0-3.76-.12-13.58-.31h-.25v.25c.15,4.59.32,9.87.5,15.5v.14l.12.08,1.57,1,8,5.19.14.09.14-.08,9-5.46.12-.07v-.13c-.16-4.82-.31-8.83-.41-11.7,0-1.35-.1-2.42-.14-3.22a10.83,10.83,0,0,0-.07-1.1,1.27,1.27,0,0,0,0,.32v.87c0,.81,0,1.91,0,3.27,0,2.84.1,6.81.17,11.57l.11-.2-9,5.4h.28l-7.95-5.2-1.57-1,.12.22c-.2-5.63-.4-10.91-.56-15.49l-.24.24,13.42.08h3.82l1,0A1.69,1.69,0,0,0,138.2,298.15Z" style="fill: rgb(38, 50, 56); transform-origin: 129.085px 308.845px; user-select: auto;" id="el062xzuv3l2xe" class="animable"></path><path d="M88.1,323.17a14.12,14.12,0,0,0,3-.09c1.84-.14,4.36-.39,7.14-.75s5.29-.76,7.09-1.1a14,14,0,0,0,2.9-.67,17.61,17.61,0,0,0-3,.29l-7.1.94-7.1.91A17.8,17.8,0,0,0,88.1,323.17Z" style="fill: rgb(38, 50, 56); transform-origin: 98.165px 321.886px; user-select: auto;" id="el8r9ltucv0pn" class="animable"></path><path d="M88.61,384.74s.09.32.52.7a3.5,3.5,0,0,0,2.24.76,5.31,5.31,0,0,0,3.28-1.26,21.93,21.93,0,0,0,3-3,41.63,41.63,0,0,0,4.45-6.26,12.66,12.66,0,0,0,1.38-2.85,29.84,29.84,0,0,0-1.71,2.65,57,57,0,0,1-4.53,6.1,25.92,25.92,0,0,1-2.89,3,5,5,0,0,1-3,1.26,3.49,3.49,0,0,1-2.11-.54C88.82,385,88.65,384.71,88.61,384.74Z" style="fill: rgb(38, 50, 56); transform-origin: 96.045px 379.515px; user-select: auto;" id="el32m24ae6atz" class="animable"></path><path d="M132,386.68s0,.28.29.7a4.62,4.62,0,0,0,1.52,1.45,5.93,5.93,0,0,0,3,.79,7.2,7.2,0,0,0,3.63-1.15,12.87,12.87,0,0,0,4.37-5.21,11.53,11.53,0,0,0,1.08-2.58,19,19,0,0,0-1.42,2.4,13.86,13.86,0,0,1-4.32,4.92,6.8,6.8,0,0,1-3.35,1.11,5.73,5.73,0,0,1-2.81-.62A6.35,6.35,0,0,1,132,386.68Z" style="fill: rgb(38, 50, 56); transform-origin: 138.945px 385.15px; user-select: auto;" id="el9phzcy8fiep" class="animable"></path><path d="M130.56,378.35a5.39,5.39,0,0,0,1.8,1,14.28,14.28,0,0,0,4.92,1.1,14.1,14.1,0,0,0,5-.69,5.47,5.47,0,0,0,1.88-.89c0-.18-3,1.22-6.85,1A23.12,23.12,0,0,1,130.56,378.35Z" style="fill: rgb(69, 90, 100); transform-origin: 137.36px 379.406px; user-select: auto;" id="ellagepf9cxzh" class="animable"></path><path d="M118.66,192.23,94,191.93l2.75-20.27s-1.68-.35-1.8-9.16-.53-23.8-.53-23.8h0a32.68,32.68,0,0,1,31.89,3.87l1.35,1Z" style="fill: rgb(255, 190, 157); transform-origin: 110.83px 164.219px; user-select: auto;" id="elxh0pgidj81i" class="animable"></path><path d="M124.81,154.42c.16-.07,6.28-1.79,6.08,4.24s-6.43,4.59-6.43,4.41S124.81,154.42,124.81,154.42Z" style="fill: rgb(255, 190, 157); transform-origin: 127.677px 158.744px; user-select: auto;" id="ely3j50yela6s" class="animable"></path><path d="M95.49,153.16c-.15-.06-5.72-1.51-5.52,4.51s6.43,4.6,6.43,4.42S95.49,153.16,95.49,153.16Z" style="fill: rgb(255, 190, 157); transform-origin: 93.1824px 157.664px; user-select: auto;" id="el2r70ep1x6ct" class="animable"></path><path d="M126.84,153.75c-.94,5.05-.75,7.7-1.62,11.07-1.36,5.34-4.11,9.44-9.09,12.1s-11.72,2.62-16-1c-3-2.52-5.08-5.36-5.52-9.16s-.88-10.5-.91-14.32c0-6.88-.53-13.46-.53-13.46l20.37-3.56,11.58,6.66Z" style="fill: rgb(38, 50, 56); transform-origin: 110.005px 157.106px; user-select: auto;" id="el1riuu8obl0v" class="animable"></path><path d="M105.83,180a6.82,6.82,0,0,0,3.57.3,6.7,6.7,0,0,0,3.41-1.05c0-.15-1.56.31-3.47.5S105.86,179.81,105.83,180Z" style="fill: rgb(38, 50, 56); transform-origin: 109.32px 179.816px; user-select: auto;" id="el6cfyrete36l" class="animable"></path><path d="M125.85,162.33c.6-5.17,1-11.09,1.82-16.55.32-2.05,1.07-5,.89-7.06a16.7,16.7,0,0,0-1.34-6.06,8.92,8.92,0,0,0-6.19-4.61,9.17,9.17,0,0,0-7.56,1.94,6.9,6.9,0,0,0-7-2.67,6.65,6.65,0,0,0-5.06,5.36,4.87,4.87,0,0,0-5.55-.58,4.49,4.49,0,0,0-2,5,4.54,4.54,0,0,0-3.37,2.53,4.27,4.27,0,0,0,.34,4.11c.94,1.4,2.65,2.17,3.69,3.51a4.9,4.9,0,0,1,.31,5.44" style="fill: rgb(38, 50, 56); transform-origin: 109.352px 144.75px; user-select: auto;" id="elkwmdgwvac4" class="animable"></path><path d="M97.58,143.63a1.32,1.32,0,0,0,.22.57A4.14,4.14,0,0,0,99,145.48a4.4,4.4,0,0,0,2.65.81,4.59,4.59,0,0,0,3.27-1.48l-.43-.11a4.13,4.13,0,0,0,2.72,3,5,5,0,0,0,4.59-.56,6.67,6.67,0,0,0,2.58-3.27l-.49.06a5.8,5.8,0,0,0,4.61,2.44,5.43,5.43,0,0,0,3.88-1.53,5.27,5.27,0,0,0,1.41-2.31,2,2,0,0,0,.11-1s-.08.33-.3.89a5.3,5.3,0,0,1-1.46,2.12,5.1,5.1,0,0,1-3.62,1.31,5.33,5.33,0,0,1-4.16-2.26l-.3-.45-.2.5a6.2,6.2,0,0,1-2.38,3,4.43,4.43,0,0,1-4.07.52,3.68,3.68,0,0,1-2.44-2.6l-.09-.5-.34.39a4.18,4.18,0,0,1-2.9,1.39,4.11,4.11,0,0,1-2.47-.65A5.54,5.54,0,0,1,97.58,143.63Z" style="fill: rgb(69, 90, 100); transform-origin: 110.75px 144.775px; user-select: auto;" id="elqnepsqoq9kl" class="animable"></path><path d="M97.61,141.24a5.31,5.31,0,0,1,.87-2.19,3.64,3.64,0,0,1,2.14-1.39,4,4,0,0,1,3.11.57l.49.34,0-.59a4.33,4.33,0,0,1,.21-1.73,4.73,4.73,0,0,1,2.5-2.81,4.9,4.9,0,0,1,3.18-.27,6.77,6.77,0,0,1,2.65,1.44s-.12-.29-.51-.67a5,5,0,0,0-2-1.15,5.09,5.09,0,0,0-6.33,3.29,4.91,4.91,0,0,0-.23,2l.44-.25a4.37,4.37,0,0,0-3.55-.59,3.93,3.93,0,0,0-2.32,1.65,3.59,3.59,0,0,0-.62,1.73C97.52,141,97.58,141.24,97.61,141.24Z" style="fill: rgb(69, 90, 100); transform-origin: 105.164px 136.903px; user-select: auto;" id="elontw9sk7ovg" class="animable"></path><path d="M110.6,141.42c.08,0,0-.35,0-.83a3.79,3.79,0,0,1,.64-1.78,19.26,19.26,0,0,1,1.18-1.6c.31-.31.6-.09.65-.12s0-.14-.14-.25a.72.72,0,0,0-.76.07,4.11,4.11,0,0,0-.71.68,9.39,9.39,0,0,0-.71.93,3.25,3.25,0,0,0-.55,2.08C110.29,141.17,110.54,141.45,110.6,141.42Z" style="fill: rgb(69, 90, 100); transform-origin: 111.639px 139.093px; user-select: auto;" id="el2hqusbtnjle" class="animable"></path><path d="M122.68,133.84c.06,0,0-.47-.38-1.1a3,3,0,0,0-.93-.94,2.44,2.44,0,0,0-1.66-.35,4,4,0,0,0-2.47,1.49c-.46.56-.66.94-.61,1s.39-.26.9-.72a4.28,4.28,0,0,1,2.26-1.22,2.42,2.42,0,0,1,2.18,1C122.4,133.48,122.6,133.87,122.68,133.84Z" style="fill: rgb(69, 90, 100); transform-origin: 119.661px 132.685px; user-select: auto;" id="el3p2c8enuodc" class="animable"></path><path d="M119.51,159.4a9.76,9.76,0,0,0,2.15-3.84,9.39,9.39,0,0,0,.75-4.31c-.17,0-.49,1.89-1.29,4.13S119.36,159.32,119.51,159.4Z" style="fill: rgb(69, 90, 100); transform-origin: 120.961px 155.325px; user-select: auto;" id="elyv5hhljfez" class="animable"></path><path d="M116.77,160.85a7.27,7.27,0,0,0,1.51-2.74,7.36,7.36,0,0,0,.75-3,10.74,10.74,0,0,0-1.28,2.82A11.06,11.06,0,0,0,116.77,160.85Z" style="fill: rgb(69, 90, 100); transform-origin: 117.9px 157.98px; user-select: auto;" id="elqjzfnibesp9" class="animable"></path><path d="M99.62,161.26a9.16,9.16,0,0,0,.7,5.29,9.64,9.64,0,0,0,3.1,4.43c.14-.11-1.52-1.9-2.57-4.62S99.8,161.25,99.62,161.26Z" style="fill: rgb(69, 90, 100); transform-origin: 101.463px 166.12px; user-select: auto;" id="el7va66gtf3qg" class="animable"></path><path d="M96.88,156.86a7.49,7.49,0,0,0-.4,4.77A7.61,7.61,0,0,0,98.6,166a26,26,0,0,1-1.55-4.43C96.55,159,97.06,156.89,96.88,156.86Z" style="fill: rgb(69, 90, 100); transform-origin: 97.4312px 161.43px; user-select: auto;" id="elyg88z7jmq1n" class="animable"></path><path d="M62,240.86v24a5.9,5.9,0,0,0,.53,2.45c2.86,6.32,16.84,29.77,18.64,32.77,0,0,0,0,0,0C80.07,296.54,90,279.82,90,279.82l-10-19-.26-20.7-16.1-23.7L62,240.86Z" style="fill: #00BFA6; transform-origin: 76px 258.25px; user-select: auto;" id="elk1gr1ot3lke" class="animable"></path><path d="M187,179.4l-36.62-19.7-10.21,16.15L161,186.76l-25.21.44-3.88,0c-1.7,0-14.07-.34-14.07-.34s-8.35,2.3-13.16,2.2c-5.17-.1-12.62-2.28-12.62-2.28l-7.79,3.81s-15.93,9-18.06,11.78-2.55,14-2.55,14l15.48,27.84,6.41,15.93S78,287.09,79.88,300.51h67.25l-3.65-81.9h0l21.22-8.73,21-9.84c3.38-1.83,7.19-6.56,7.19-10.41S190.54,181.17,187,179.4Z" style="fill: #00BFA6; transform-origin: 128.275px 230.105px; user-select: auto;" id="elfsv4xmdq6mb" class="animable"></path><path d="M147.33,164.78h0l-9.56-5.56-14.56-7.89s-4.8-3.64-6.69-3.53a5.73,5.73,0,0,0-3.91,2.68c-.09.43.7,1.23,1.92.89.4-.11,1.51-.91,2.16-.78a4.35,4.35,0,0,1,2.71,1.95.65.65,0,0,1-.52,1s-8.24-2.08-11.31-.42a1.65,1.65,0,0,0-.84,2c.23.54.81,1,2.25.73,2.89-.55,7.67,1.67,7.67,1.67s-10.68-.35-12.52.57c-.72.35-1.51,2.69.66,2.93,2.58.28,7.64.17,7.64.17s4.78.66,4,1.55-8.09,1-8.65,1.09-3,0-2.91,2c.08,1.15,2.22,1.87,5,1.78,2.36-.07,9.67-.22,10.56,1.11s.27,2.31-.39,2.65a41.82,41.82,0,0,1-6.52,1c-1,0-2.24,1.78.12,2.36,2.56.62,4.73.11,7,.11s5.06.18,11.29-2.27c0,0,4.21-1.9,9.94,1.39Z" style="fill: rgb(255, 190, 157); transform-origin: 125.353px 161.417px; user-select: auto;" id="eldqjb02y56ws" class="animable"></path><path d="M141.82,174.05a2.14,2.14,0,0,1-.35-.16c-.24-.1-.56-.3-1-.48a13.25,13.25,0,0,0-4.16-1.13,10.69,10.69,0,0,0-3.1.14,8.11,8.11,0,0,0-1.7.53c-.59.23-1.2.46-1.84.68a31,31,0,0,1-4.21,1.13,23.38,23.38,0,0,1-4.88.35,52.06,52.06,0,0,1-5.39.16,11.48,11.48,0,0,1-1.43-.22,2.57,2.57,0,0,1-1.39-.7,1.05,1.05,0,0,1-.24-.84,1.44,1.44,0,0,1,.38-.77,1.65,1.65,0,0,1,.73-.44,6.6,6.6,0,0,1,.79-.09c1-.1,2-.24,3-.41.51-.08,1-.16,1.55-.26a5.72,5.72,0,0,0,1.46-.41,1.29,1.29,0,0,0,.57-1.19,2.07,2.07,0,0,0-.21-.71c-.06-.11-.13-.22-.2-.33s-.12-.15-.24-.2a4.78,4.78,0,0,0-1.51-.48c-.55-.1-1.11-.16-1.67-.21a60.66,60.66,0,0,0-7-.09,9.88,9.88,0,0,1-3.7-.52,3,3,0,0,1-.87-.49,1.42,1.42,0,0,1-.58-.93,1.81,1.81,0,0,1,.87-1.85,4.73,4.73,0,0,1,1.93-.5c.63-.09,1.3-.1,1.92-.13,1.28-.07,2.57-.14,3.86-.26.64-.07,1.29-.14,1.92-.27s1.46-.41,1-.5a6.16,6.16,0,0,0-1.77-.62c-.64-.15-1.3-.27-2-.36h0c-1.78,0-3.59,0-5.44,0l-1.4-.07a5.69,5.69,0,0,1-1.46-.22,1.64,1.64,0,0,1-.69-.47,1.6,1.6,0,0,1-.33-.77,2.42,2.42,0,0,1,.36-1.54,1.91,1.91,0,0,1,.33-.38,1.13,1.13,0,0,1,.45-.23,5,5,0,0,1,.86-.22c.57-.09,1.13-.14,1.69-.19,1.11-.08,2.22-.12,3.32-.14,2.21,0,4.38,0,6.53.05l-.12.51a19.34,19.34,0,0,0-6-1.71,6.24,6.24,0,0,0-1.5.07,3.12,3.12,0,0,1-1.68-.07,1.54,1.54,0,0,1-1-1.46,1.93,1.93,0,0,1,.78-1.53,6.26,6.26,0,0,1,3-.83,20.22,20.22,0,0,1,3,.07,41.18,41.18,0,0,1,5.74,1h-.1c.45-.07.54-.34.28-.76a3.87,3.87,0,0,0-1-1,3.8,3.8,0,0,0-1.25-.64.9.9,0,0,0-.6,0,3.33,3.33,0,0,0-.64.24l-.64.33a2,2,0,0,1-.77.24,1.86,1.86,0,0,1-1.52-.43.89.89,0,0,1-.33-.85,2.36,2.36,0,0,1,.44-.67,7,7,0,0,1,1-1,5,5,0,0,1,2.58-1.14,6,6,0,0,1,2.61.83,34.53,34.53,0,0,1,4.25,2.76l0,0,10.11,5.52,4.14,2.27,3.43,2,4.72,2.81,1.22.74.41.27a2,2,0,0,1-.44-.22l-1.25-.69-4.77-2.72-3.45-2L133.25,157l-10.14-5.45,0,0a35.23,35.23,0,0,0-4.21-2.69,5.74,5.74,0,0,0-2.38-.77,4.62,4.62,0,0,0-2.33,1.06,6.17,6.17,0,0,0-1,.93,2.4,2.4,0,0,0-.35.49c0,.08.06.27.2.39a1.41,1.41,0,0,0,1.15.31,4.2,4.2,0,0,0,1.26-.54,4.05,4.05,0,0,1,.74-.28,1.44,1.44,0,0,1,.85.05,4.12,4.12,0,0,1,1.4.71,4.31,4.31,0,0,1,1.1,1.15,1.12,1.12,0,0,1,.17.94,1,1,0,0,1-.8.56.11.11,0,0,1-.08,0h0a41.26,41.26,0,0,0-5.66-.95,19.09,19.09,0,0,0-2.93-.06,5.79,5.79,0,0,0-2.75.72,1.45,1.45,0,0,0-.58,1.11,1,1,0,0,0,.64,1,2.7,2.7,0,0,0,1.39,0,6.86,6.86,0,0,1,1.63-.07,19.88,19.88,0,0,1,6.22,1.75.28.28,0,0,1,.14.36.29.29,0,0,1-.26.16h0c-2.13-.06-4.31-.08-6.5,0-1.09,0-2.19.05-3.29.14-.55,0-1.1.1-1.64.18a5.63,5.63,0,0,0-.76.19.78.78,0,0,0-.29.14,1.13,1.13,0,0,0-.21.26c-.45.69-.42,1.75.39,2a5.56,5.56,0,0,0,1.3.19l1.38.07c1.83.06,3.64.05,5.4,0h0c.67.1,1.34.22,2,.37a6.51,6.51,0,0,1,2,.71.91.91,0,0,1,.24.24.52.52,0,0,1,.08.46.57.57,0,0,1-.24.31,1.19,1.19,0,0,1-.27.17,5.17,5.17,0,0,1-1,.29c-.67.13-1.32.2-2,.27-1.3.12-2.6.19-3.88.25-.65,0-1.26,0-1.9.14a4.07,4.07,0,0,0-1.71.42,1.29,1.29,0,0,0-.63,1.33c.07.46.6.82,1.13,1a9.4,9.4,0,0,0,3.5.49,63.92,63.92,0,0,1,7.08.12c.57.05,1.15.12,1.71.22a5,5,0,0,1,1.68.55,1.5,1.5,0,0,1,.38.34c.08.13.16.25.23.39a2.31,2.31,0,0,1,.25.87,1.74,1.74,0,0,1-.78,1.61,5.32,5.32,0,0,1-1.63.47c-.52.1-1,.18-1.57.26-1,.16-2.06.3-3.07.4a6.05,6.05,0,0,0-.72.07,1.22,1.22,0,0,0-.53.32.79.79,0,0,0-.13,1.06,2.19,2.19,0,0,0,1.16.56,9.52,9.52,0,0,0,1.37.22,49.82,49.82,0,0,0,5.36-.12,23.41,23.41,0,0,0,4.82-.31,30.65,30.65,0,0,0,4.18-1.08c.63-.22,1.25-.43,1.83-.65a8.34,8.34,0,0,1,1.75-.53,10.38,10.38,0,0,1,3.17-.09,12.78,12.78,0,0,1,4.18,1.23A10.38,10.38,0,0,1,141.82,174.05Z" style="fill: rgb(235, 153, 110); transform-origin: 125.084px 161.481px; user-select: auto;" id="elyt8p2u7a3y" class="animable"></path><g id="elh6ti4p7sa7b" style="user-select: auto;"><g style="opacity: 0.3; transform-origin: 160.445px 184.694px; user-select: auto;" class="animable" id="elihdy3ecu9sh"><path d="M160.8,186.71a15.72,15.72,0,0,0,7.68-.14c-3.94-3-11.17-3.64-16.07-4.3l8.39,4.44" id="elt2giho1gms" class="animable" style="transform-origin: 160.445px 184.694px; user-select: auto;"></path></g></g><path d="M177.05,187.14a11.46,11.46,0,0,1-2.45,0l-5.87-.17-5.88-.1a11.61,11.61,0,0,1-2.44-.14,11,11,0,0,1,2.44-.25c1.5-.07,3.59-.11,5.89-.06s4.38.19,5.89.33A10.45,10.45,0,0,1,177.05,187.14Z" style="fill: rgb(38, 50, 56); transform-origin: 168.73px 186.802px; user-select: auto;" id="elmsbl3sh9mdm" class="animable"></path><path d="M68.1,257.92a5.81,5.81,0,0,1,1.35.93,15.46,15.46,0,0,0,3.27,2,6.55,6.55,0,0,0,3.71.48c1-.17,1.49-.52,1.54-.44s-.43.53-1.45.82a6.2,6.2,0,0,1-4-.35,11.92,11.92,0,0,1-3.31-2.26C68.46,258.45,68.05,258,68.1,257.92Z" style="fill: rgb(38, 50, 56); transform-origin: 73.0347px 259.906px; user-select: auto;" id="elc48owubd2kg" class="animable"></path><path d="M79.88,300.51a4.8,4.8,0,0,1-.11-.8c0-.53-.13-1.31-.18-2.33a66.75,66.75,0,0,1,.31-8.59,165.41,165.41,0,0,1,5.6-28v.17l-.79-2c-4.31-10.87-8.2-20.72-11-27.9-1.37-3.54-2.5-6.43-3.29-8.47-.37-1-.66-1.75-.87-2.32a4.09,4.09,0,0,1-.27-.82,6.59,6.59,0,0,1,.37.78q.35.85,1,2.28L74,230.92c2.88,7.16,6.83,17,11.2,27.84l.78,2,0,.08,0,.09a176.27,176.27,0,0,0-5.74,27.92,72.35,72.35,0,0,0-.47,8.56c0,1,.07,1.79.09,2.32A5.54,5.54,0,0,1,79.88,300.51Z" style="fill: rgb(38, 50, 56); transform-origin: 77.63px 259.98px; user-select: auto;" id="ello4eta5ha0b" class="animable"></path><path d="M141.59,216.74a4.39,4.39,0,0,1-.75-.72,21.75,21.75,0,0,1-1.81-2.18,30,30,0,0,1-5.76-17.52,20.17,20.17,0,0,1,.16-2.83,3.72,3.72,0,0,1,.18-1c.09,0-.06,1.48,0,3.85a33.29,33.29,0,0,0,1.63,9.06,33.74,33.74,0,0,0,4.06,8.26C140.67,215.58,141.66,216.67,141.59,216.74Z" style="fill: rgb(38, 50, 56); transform-origin: 137.431px 204.615px; user-select: auto;" id="elsrrr0kypha" class="animable"></path><path d="M117,222.56a2.08,2.08,0,0,1,0,.55q-.07.62-.18,1.56c-.16,1.36-.43,3.32-.81,5.74-.77,4.83-2,11.48-3.83,18.73s-3.83,13.71-5.43,18.34c-.8,2.31-1.48,4.17-2,5.44l-.59,1.47a2.73,2.73,0,0,1-.23.49,2.12,2.12,0,0,1,.13-.53c.13-.4.3-.89.49-1.5.46-1.36,1.07-3.22,1.82-5.49,1.51-4.65,3.46-11.11,5.27-18.35s3.12-13.85,4-18.66l1-5.71c.11-.62.2-1.14.27-1.55A2,2,0,0,1,117,222.56Z" style="fill: rgb(38, 50, 56); transform-origin: 110.474px 248.72px; user-select: auto;" id="elgq1r99aql" class="animable"></path></g><g id="freepik--Window--inject-49" class="animable" style="transform-origin: 396.8px 159.965px; user-select: auto;"><rect x="333.2" y="125.55" width="127.15" height="69.09" style="fill: rgb(245, 245, 245); transform-origin: 396.775px 160.095px; user-select: auto;" id="elzc5nlkgstmo" class="animable"></rect><rect x="333.2" y="125.55" width="127.15" height="11.33" style="fill: rgb(224, 224, 224); transform-origin: 396.775px 131.215px; user-select: auto;" id="elhmf3jc2wnxp" class="animable"></rect><path d="M340.81,131.46a1.42,1.42,0,1,1-1.42-1.41A1.42,1.42,0,0,1,340.81,131.46Z" style="fill: rgb(245, 245, 245); transform-origin: 339.39px 131.47px; user-select: auto;" id="ellehy2zqhq2l" class="animable"></path><path d="M346.22,131.46a1.41,1.41,0,1,1-1.41-1.41A1.41,1.41,0,0,1,346.22,131.46Z" style="fill: rgb(245, 245, 245); transform-origin: 344.81px 131.46px; user-select: auto;" id="el4l7h1jw8x1u" class="animable"></path><path d="M351.64,131.46a1.41,1.41,0,1,1-1.41-1.41A1.41,1.41,0,0,1,351.64,131.46Z" style="fill: rgb(245, 245, 245); transform-origin: 350.23px 131.46px; user-select: auto;" id="elribkh6659ea" class="animable"></path><rect x="345.96" y="151.9" width="29.63" height="29.63" style="fill: #00BFA6; transform-origin: 360.775px 166.715px; user-select: auto;" id="eljb03se4il3" class="animable"></rect><rect x="381.96" y="151.9" width="29.63" height="29.63" style="fill: #00BFA6; transform-origin: 396.775px 166.715px; user-select: auto;" id="elfbzca0w2y8e" class="animable"></rect><rect x="417.95" y="151.9" width="29.63" height="29.63" style="fill: rgb(69, 90, 100); transform-origin: 432.765px 166.715px; user-select: auto;" id="elr57kn8a05tb" class="animable"></rect><g id="elmwaewcnea7s" style="user-select: auto;"><g style="opacity: 0.4; transform-origin: 396.775px 166.715px; user-select: auto;" class="animable" id="el4sac1yn0qy"><rect x="381.96" y="151.9" width="29.63" height="29.63" id="el5k4fkufosfd" class="animable" style="transform-origin: 396.775px 166.715px; user-select: auto;"></rect></g></g><path d="M460.34,194.64s0-.43,0-1.25,0-2,0-3.61c0-3.17,0-7.83-.05-13.81,0-11.95-.06-29.2-.1-50.42l.19.19-127.13.07h0l.26-.26c0,24.41,0,47.78,0,69.09l-.24-.25,91.4.12,26.29.07,7,0h1.81l.62,0h-.59l-1.79,0-7,0-26.24.06-91.56.12H333v-.24c0-21.31,0-44.68,0-69.09v-.26h.27l127.13.06h.2v.2c0,21.27-.08,38.56-.1,50.54,0,6,0,10.61-.05,13.77,0,1.56,0,2.75,0,3.57S460.34,194.64,460.34,194.64Z" style="fill: rgb(38, 50, 56); transform-origin: 396.8px 159.965px; user-select: auto;" id="el4s1bsslzok4" class="animable"></path></g><g id="freepik--speech-bubble--inject-49" class="animable" style="transform-origin: 50.69px 116.88px; user-select: auto;"><g id="el1t2r4rosavw" style="user-select: auto;"><circle cx="50.69" cy="116.88" r="27.88" style="fill: rgb(250, 250, 250); transform-origin: 50.69px 116.88px; transform: rotate(-76.9deg); user-select: auto;" class="animable" id="elxape8q8ab3"></circle></g><g id="ela78hldv8yv" style="user-select: auto;"><circle cx="50.67" cy="116.88" r="27.96" style="fill: rgb(255, 255, 255); transform-origin: 50.67px 116.88px; transform: rotate(-80.87deg); user-select: auto;" class="animable" id="elz99od7xydti"></circle></g><path d="M79.51,130.84s-.29.09-.76.35a3.73,3.73,0,0,0-1.49,1.64,3.4,3.4,0,0,0-.34,1.49,3.07,3.07,0,0,0,.51,1.66,3.34,3.34,0,0,0,6.15-1.14,3,3,0,0,0-.11-1.73,3.42,3.42,0,0,0-.85-1.27,3.66,3.66,0,0,0-2-1c-.53-.08-.83,0-.84-.05a.63.63,0,0,1,.22,0l.27,0a2.43,2.43,0,0,1,.36,0,3.72,3.72,0,0,1,2.1,1,3.75,3.75,0,0,1,.92,1.33,3.32,3.32,0,0,1,.15,1.86,3.77,3.77,0,0,1-.95,1.82,3.34,3.34,0,0,1-4.1.76,3.72,3.72,0,0,1-1.54-1.36,3.26,3.26,0,0,1-.53-1.79,3.75,3.75,0,0,1,2-3.22A1.53,1.53,0,0,1,79,131a1.17,1.17,0,0,1,.25-.08Z" style="fill: rgb(38, 50, 56); transform-origin: 80.2746px 134.367px; user-select: auto;" id="elq36ps7jwvl" class="animable"></path><path d="M78.67,115.57s0-.16,0-.45-.08-.75-.15-1.33c0-.29-.06-.62-.1-1s-.14-.74-.22-1.16-.18-.87-.28-1.36a4.2,4.2,0,0,0-.2-.73q-.11-.37-.24-.78a26.49,26.49,0,0,0-3.44-7.3,27.72,27.72,0,0,0-7.46-7.6L65.28,93c-.43-.26-.89-.5-1.35-.75l-.68-.37a4.68,4.68,0,0,0-.71-.35l-1.48-.63-.76-.32-.79-.25-1.59-.5c-.54-.15-1.11-.24-1.67-.36l-.84-.18L55,89.25l-.43,0A27.59,27.59,0,0,0,51,89c-.6,0-1.21,0-1.82,0l-1.85.18c-.3,0-.62,0-.92.1l-.93.19c-.62.13-1.24.23-1.86.39A29.46,29.46,0,0,0,40,91.09l-.91.38-.46.19-.43.24-1.77.95c-.57.35-1.12.75-1.69,1.12-.27.2-.57.37-.83.58l-.8.66A32.35,32.35,0,0,0,30,98l-1.34,1.63-.34.41c-.11.14-.2.29-.3.44l-.6.88-.61.89-.52.94-.51,1-.26.48c-.08.16-.15.33-.22.49-.28.67-.57,1.34-.86,2s-.44,1.39-.66,2.1a27.73,27.73,0,0,0,.81,17.6c.28.68.57,1.35.85,2l1,1.92.26.48.3.45.6.9.61.89.68.83.68.83.34.4.37.38,1.49,1.5A30.41,30.41,0,0,0,35.12,140l.85.58c.28.19.59.33.89.5.6.32,1.18.67,1.78,1l1.84.79.46.19.47.16.94.29a28.49,28.49,0,0,0,3.78.92c.63.1,1.26.15,1.89.22l.93.1c.32,0,.63,0,.94,0h1.85c.61,0,1.22-.11,1.82-.15a27,27,0,0,0,3.51-.58l.42-.08.42-.12.83-.26c.54-.17,1.1-.31,1.62-.51l1.55-.65.76-.32.72-.38,1.42-.76a6.79,6.79,0,0,0,.67-.42l.65-.43c.43-.3.87-.57,1.28-.87l1.16-.95A28,28,0,0,0,75.31,130c.18-.35.38-.68.55-1s.3-.69.44-1l.43-1c.07-.17.14-.32.2-.49l.16-.49c.2-.64.4-1.26.58-1.85s.27-1.17.39-1.71l.17-.79a5.26,5.26,0,0,0,.13-.76c0-.49.1-1,.15-1.37s.1-.82.12-1.18,0-.69,0-1c0-.58,0-1,0-1.34s0-.45,0-.45,0,.15,0,.45,0,.76,0,1.34v1c0,.36-.07.76-.11,1.19s-.09.88-.14,1.38a4.17,4.17,0,0,1-.12.75c0,.26-.1.53-.16.8-.12.54-.21,1.13-.38,1.72s-.37,1.22-.58,1.87l-.15.49c-.06.16-.13.32-.2.48l-.42,1c-.15.34-.29.69-.44,1l-.56,1a27.89,27.89,0,0,1-6.74,8.33l-1.17,1c-.41.3-.85.58-1.28.88l-.66.44a5,5,0,0,1-.67.42l-1.43.77-.73.39-.76.32-1.56.65c-.52.21-1.08.35-1.63.53L58,144l-.42.13-.43.08a25.63,25.63,0,0,1-3.54.59c-.61,0-1.21.13-1.83.16H49.88c-.31,0-.63,0-.94,0l-.95-.1c-.63-.07-1.27-.11-1.9-.21a29,29,0,0,1-3.81-.93l-1-.3c-.15,0-.32-.09-.47-.15l-.46-.2-1.86-.79c-.61-.29-1.2-.64-1.81-1-.29-.17-.61-.32-.89-.51l-.86-.58a31,31,0,0,1-3.32-2.57l-1.5-1.51-.38-.37-.34-.42-.69-.83-.69-.84-.61-.9-.61-.9-.3-.46-.27-.48-1-1.94-.86-2a28,28,0,0,1-.82-17.76c.23-.71.45-1.42.67-2.12l.87-2c.07-.17.14-.34.22-.51l.26-.48.52-1,.53-1,.6-.89.61-.89.3-.45.35-.41,1.36-1.64A31.8,31.8,0,0,1,32.91,95l.8-.65c.26-.22.56-.39.84-.59.57-.38,1.13-.78,1.71-1.13l1.78-1,.44-.23.46-.2.92-.38a28.37,28.37,0,0,1,3.7-1.27c.62-.16,1.26-.26,1.88-.39l.93-.19c.31,0,.63-.06.94-.1l1.86-.18c.61,0,1.22,0,1.83,0a26.34,26.34,0,0,1,3.58.26L55,89l.43.09.86.18c.56.13,1.13.22,1.67.37l1.61.51.79.25.76.32,1.49.64a4.68,4.68,0,0,1,.71.35l.7.38c.45.26.91.49,1.35.76s.84.57,1.26.85a28,28,0,0,1,7.48,7.67,27,27,0,0,1,3.41,7.35q.12.41.24.78a5.37,5.37,0,0,1,.19.74c.09.49.18.94.26,1.36s.17.81.22,1.17l.09,1c0,.58.09,1,.11,1.33S78.67,115.57,78.67,115.57Z" style="fill: rgb(38, 50, 56); transform-origin: 50.5716px 116.825px; user-select: auto;" id="elopx9au3a1sn" class="animable"></path><path d="M60.93,114.33a10.23,10.23,0,1,0-14.59,9.26v2.58h9s0-1.45.07-2.74A10.23,10.23,0,0,0,60.93,114.33Z" style="fill: #00BFA6; transform-origin: 50.7px 115.138px; user-select: auto;" id="eluj3iy0ac7x" class="animable"></path><path d="M52.07,126.13a1.16,1.16,0,0,1,0-.13l0-.37c0-.32.09-.8.19-1.42s.21-1.36.4-2.22a15.15,15.15,0,0,1,.93-2.85,11.09,11.09,0,0,1,.84-1.53,1.94,1.94,0,0,1,.7-.63,1,1,0,0,1,1,0,.69.69,0,0,1,.33.4.75.75,0,0,1,0,.53,1.47,1.47,0,0,1-.79.68,2.81,2.81,0,0,1-3.57-1.86,2.14,2.14,0,0,1-.06-1.18.92.92,0,0,1,.93-.71.66.66,0,0,1,.52.36.92.92,0,0,1,.08.63,1.94,1.94,0,0,1-.71,1,3.11,3.11,0,0,1-2.39.69,2.68,2.68,0,0,1-2-1.48,1.57,1.57,0,0,1-.07-1.24.8.8,0,0,1,.45-.45.77.77,0,0,1,.63.06,1,1,0,0,1,.43.45,1.53,1.53,0,0,1,.16.59,2.89,2.89,0,0,1-.16,1.17,3.05,3.05,0,0,1-1.44,1.71,3.09,3.09,0,0,1-2.12.29,1.62,1.62,0,0,1-.92-.48.8.8,0,0,1-.05-1,.68.68,0,0,1,.46-.23,1,1,0,0,1,.48.1,1.47,1.47,0,0,1,.63.7c.26.56.46,1.1.67,1.61.82,2.06,1.4,3.76,1.79,4.94.19.59.34,1,.43,1.36.05.15.09.27.11.36l0,.12a1.26,1.26,0,0,0,0-.12l-.12-.35-.46-1.35c-.4-1.18-1-2.87-1.82-4.93-.21-.51-.42-1-.68-1.59a1.34,1.34,0,0,0-.58-.66.68.68,0,0,0-.82.11.67.67,0,0,0,.06.85,1.59,1.59,0,0,0,.86.45,3,3,0,0,0,2-.29,3,3,0,0,0,1.38-1.65,2.84,2.84,0,0,0,.15-1.12,1.11,1.11,0,0,0-.53-.94.62.62,0,0,0-.53,0,.66.66,0,0,0-.37.38,1.38,1.38,0,0,0,.07,1.14,2.53,2.53,0,0,0,1.88,1.4,3,3,0,0,0,2.29-.66,1.86,1.86,0,0,0,.67-1,.78.78,0,0,0-.07-.54.51.51,0,0,0-.42-.3.73.73,0,0,0-.51.16.93.93,0,0,0-.29.46,2,2,0,0,0,.06,1.11,2.69,2.69,0,0,0,3.41,1.79,1.34,1.34,0,0,0,.74-.62.62.62,0,0,0-.24-.8,1,1,0,0,0-.88,0,1.9,1.9,0,0,0-.66.6,9.87,9.87,0,0,0-.84,1.51,15.59,15.59,0,0,0-.94,2.83c-.2.85-.33,1.6-.43,2.21l-.21,1.41,0,.37C52.08,126.08,52.07,126.13,52.07,126.13Z" style="fill: rgb(38, 50, 56); transform-origin: 50.8683px 120.219px; user-select: auto;" id="el2mcil7j6uzr" class="animable"></path><path d="M54.62,127.83h-7.7a.58.58,0,0,1-.58-.58h0a.58.58,0,0,1,.58-.58h7.7a.58.58,0,0,1,.58.58h0A.58.58,0,0,1,54.62,127.83Z" style="fill: rgb(38, 50, 56); transform-origin: 50.77px 127.25px; user-select: auto;" id="eltwtj1jpw3g" class="animable"></path><path d="M54.62,128.33h-7.7a.58.58,0,1,0,0,1.16h.84l1.12,2.13a.75.75,0,0,0,.66.4h2.75a.72.72,0,0,0,.66-.4L54,129.49h.58a.58.58,0,1,0,0-1.16Z" style="fill: rgb(38, 50, 56); transform-origin: 50.75px 130.175px; user-select: auto;" id="ellhyizpvc1w" class="animable"></path><g id="elrugo8j14i0c" style="user-select: auto;"><g style="opacity: 0.2; transform-origin: 44.941px 111.809px; user-select: auto;" class="animable" id="elsyzqjhc7w6"><path d="M44.13,107.81a7.28,7.28,0,0,1,2-1.36,5.27,5.27,0,0,1,1.57-.46c.39,0,.61,0,.63.08s-.73.46-1.78,1.16a8.39,8.39,0,0,0-3.83,8.26c.14,1.25.43,2,.26,2.11s-.25-.11-.47-.43a5.24,5.24,0,0,1-.66-1.5,7.52,7.52,0,0,1-.29-2.45,7.87,7.87,0,0,1,.72-3" style="fill: rgb(255, 255, 255); transform-origin: 44.941px 111.809px; user-select: auto;" id="el9v3pvtkhg5v" class="animable"></path></g></g><g id="eleydly1kgbl" style="user-select: auto;"><g style="opacity: 0.2; transform-origin: 50.8423px 105.876px; user-select: auto;" class="animable" id="elm1xzgmvy8mq"><path d="M50.84,106.51c-.65,0-1.22-.18-1.29-.53,0-.17.09-.35.33-.49a2,2,0,0,1,1.93,0c.23.14.35.33.32.5" style="fill: rgb(255, 255, 255); transform-origin: 50.8423px 105.876px; user-select: auto;" id="elquqyfshlifj" class="animable"></path></g></g><path d="M52.81,131.8s-.2-.07-.53-.16a4.27,4.27,0,0,0-1.3-.17,4.64,4.64,0,0,0-1.3.24,5.16,5.16,0,0,1-.52.19,2,2,0,0,1,.49-.27,3.55,3.55,0,0,1,1.32-.28,3.6,3.6,0,0,1,1.34.2A1.52,1.52,0,0,1,52.81,131.8Z" style="fill: rgb(69, 90, 100); transform-origin: 50.985px 131.623px; user-select: auto;" id="elwp5xjinfdl7" class="animable"></path><path d="M54.06,129.52s-1.39.06-3.11.06-3.11,0-3.11-.06,1.39-.07,3.11-.07S54.06,129.48,54.06,129.52Z" style="fill: rgb(69, 90, 100); transform-origin: 50.95px 129.515px; user-select: auto;" id="elkijhavzcz6" class="animable"></path><path d="M53.58,130.43a3.92,3.92,0,0,1-.76.08c-.47,0-1.12.05-1.84.06s-1.36,0-1.83,0a4.14,4.14,0,0,1-.76-.06,5.32,5.32,0,0,1,.76,0l1.83,0,1.84,0A4.19,4.19,0,0,1,53.58,130.43Z" style="fill: rgb(69, 90, 100); transform-origin: 50.985px 130.502px; user-select: auto;" id="elwozx5x694e" class="animable"></path></g><defs style="user-select: auto;">     <filter id="active" height="200%" style="user-select: auto;">         <feMorphology in="SourceAlpha" result="DILATED" operator="dilate" radius="2" style="user-select: auto;"></feMorphology>                <feFlood flood-color="#32DFEC" flood-opacity="1" result="PINK" style="user-select: auto;"></feFlood>        <feComposite in="PINK" in2="DILATED" operator="in" result="OUTLINE" style="user-select: auto;"></feComposite>        <feMerge style="user-select: auto;">            <feMergeNode in="OUTLINE" style="user-select: auto;"></feMergeNode>            <feMergeNode in="SourceGraphic" style="user-select: auto;"></feMergeNode>        </feMerge>    </filter>    <filter id="hover" height="200%" style="user-select: auto;">        <feMorphology in="SourceAlpha" result="DILATED" operator="dilate" radius="2" style="user-select: auto;"></feMorphology>                <feFlood flood-color="#ff0000" flood-opacity="0.5" result="PINK" style="user-select: auto;"></feFlood>        <feComposite in="PINK" in2="DILATED" operator="in" result="OUTLINE" style="user-select: auto;"></feComposite>        <feMerge style="user-select: auto;">            <feMergeNode in="OUTLINE" style="user-select: auto;"></feMergeNode>            <feMergeNode in="SourceGraphic" style="user-select: auto;"></feMergeNode>        </feMerge>            <feColorMatrix type="matrix" values="0   0   0   0   0                0   1   0   0   0                0   0   0   0   0                0   0   0   1   0 " style="user-select: auto;"></feColorMatrix>    </filter></defs></svg>